<?xml version="1.0" standalone="no"?>
<!DOCTYPE svg PUBLIC "-//W3C//DTD SVG 1.1//EN" "http://www.w3.org/Graphics/SVG/1.1/DTD/svg11.dtd" >
<svg>
<metadata>
Created by FontForge 20110222 at Sun Jan  4 19:12:19 2015
 By deploy user
Copyright (c) 2009 by Rodney Rogers. All rights reserved.
</metadata>
<defs>
<font id="Segan-Light" horiz-adv-x="535" >
  <font-face 
    font-family="Segan"
    font-weight="300"
    font-stretch="normal"
    units-per-em="1000"
    panose-1="0 0 0 0 0 0 0 0 0 0"
    ascent="750"
    descent="-250"
    x-height="498"
    cap-height="689"
    bbox="-89 -246 911 783"
    underline-thickness="50"
    underline-position="-50"
    unicode-range="U+0020-FB02"
  />
<missing-glyph horiz-adv-x="739" 
 />
    <glyph glyph-name=".notdef" horiz-adv-x="739" 
 />
    <glyph glyph-name=".null" horiz-adv-x="0" 
 />
    <glyph glyph-name="nonmarkingreturn" horiz-adv-x="242" 
 />
    <glyph glyph-name="space" unicode=" " horiz-adv-x="242" 
 />
    <glyph glyph-name="Scaron" unicode="&#x160;" horiz-adv-x="501" 
 />
    <glyph glyph-name="scaron" unicode="&#x161;" horiz-adv-x="414" 
d="M360 133q0 -27 -12 -53t-35 -46t-58.5 -32t-81.5 -12q-33 0 -65 7.5t-50 16.5q1 14 2 27t3 27q23 -16 56 -25.5t62 -9.5q62 0 95 27t33 69q0 28 -18.5 47t-46.5 33t-61 27.5t-61 30.5t-46.5 41.5t-18.5 62.5q0 63 48 100.5t128 37.5q29 0 57 -6.5t47 -14.5l-2 -24t-2 -25
q-23 13 -51 20.5t-57 7.5q-57 0 -87 -25t-30 -66q0 -31 18.5 -50.5t46.5 -34t61 -26.5t61 -29t46.5 -41t18.5 -62zM336 727q-30 -37 -59.5 -74t-59.5 -74q-8 5 -16 9t-17 8q-23 33 -46.5 65.5t-46.5 64.5l18 6t17 6q23 -26 44.5 -52.5t43.5 -52.5q23 26 44.5 52.5t44.5 52.5
q8 -3 16.5 -5.5t16.5 -5.5z" />
    <glyph glyph-name="Yacute" unicode="&#xdd;" horiz-adv-x="524" 
 />
    <glyph glyph-name="yacute" unicode="&#xfd;" horiz-adv-x="456" 
d="M222 -82q-19 -47 -39 -78.5t-42.5 -50.5t-49 -27t-58.5 -8q-11 0 -23.5 2.5t-20.5 4.5l4 47q9 -3 23 -5t26 -2q39 0 69 24t58 86l34 91l-191 497h57l133 -372q9 -22 15 -37.5t11 -30.5h2q5 12 14 34.5t20 47.5l127 358h54zM220 580l-36 12l112 145l44 -14z" />
    <glyph glyph-name="Thorn" unicode="&#xde;" horiz-adv-x="528" 
d="M489 379q0 -47 -18 -87.5t-51.5 -70.5t-81.5 -47t-108 -17h-18h-24.5t-24 0.5t-16.5 0.5v-158l-51 10v679l51 -10v-103q7 0 21.5 0.5t31 0.5h31h22.5q114 0 175 -50.5t61 -147.5zM436 373q0 76 -46 118t-150 42h-18t-28 -0.5t-28 -1t-19 -1.5v-327q5 0 17 -0.5t26 -1
t26.5 -0.5h19.5q102 0 151 48.5t49 123.5z" />
    <glyph glyph-name="thorn" unicode="&#xfe;" horiz-adv-x="559" 
d="M511 268q0 -62 -15.5 -112.5t-44 -86.5t-68.5 -55.5t-90 -19.5q-53 0 -87.5 17.5t-63.5 40.5l-1 -290h-50v973h50v-217q0 -33 -1 -67.5t-3 -61.5q1 0 1 -0.5t1 -0.5q22 54 69.5 87.5t110.5 33.5q92 0 142 -63t50 -178zM459 266q0 95 -37.5 148t-108.5 53q-47 0 -79.5 -21
t-53 -52t-30 -67t-9.5 -67v-116q9 -21 22.5 -41t32 -35t43 -24.5t55.5 -9.5q76 0 120.5 61.5t44.5 170.5z" />
    <glyph glyph-name="Zcaron" unicode="&#x17d;" horiz-adv-x="553" 
 />
    <glyph glyph-name="zcaron" unicode="&#x17e;" horiz-adv-x="452" 
d="M40 0v25q75 108 150 215t150 216q-33 -1 -73 -1h-82h-132v43h352v-22q-75 -109 -149.5 -216.5t-149.5 -216.5q32 0 75.5 0.5t82.5 0.5h139v-44h-363zM355 727q-30 -37 -59.5 -74t-59.5 -74q-8 5 -16 9t-17 8q-23 33 -46.5 65.5t-46.5 64.5l18 6t17 6q23 -26 44.5 -52.5
t43.5 -52.5q23 26 44.5 52.5t44.5 52.5q8 -3 16.5 -5.5t16.5 -5.5z" />
    <glyph glyph-name="onehalf" unicode="&#xbd;" horiz-adv-x="773" 
d="M476 0v42q26 25 50.5 50t50.5 50q38 38 53.5 65t15.5 58q0 26 -15 46t-52 20q-7 0 -17 -2.5t-21 -7.5t-22 -12t-19 -15l-12 45q17 11 42 21.5t55 10.5q29 0 50 -9t34 -23t19 -32t6 -36q0 -38 -18 -73.5t-63 -77.5l-75 -75l164 -1v-44h-226zM621 675
q-116 -171 -231.5 -341t-231.5 -341q-10 2 -20 4.5t-21 4.5q116 172 231.5 342t231.5 342q10 -3 20 -5.5t21 -5.5zM110 316v43h40v276q-22 -9 -43 -18t-43 -17q-2 11 -4.5 21t-4.5 20q35 12 69 23t72 22v-323l39 -24v-23h-125z" />
    <glyph glyph-name="onequarter" unicode="&#xbc;" horiz-adv-x="763" 
d="M595 260l-1 53q-6 -11 -13.5 -22t-13.5 -21l-87 -144h115v134zM639 88v-88h-44v88h-166q-1 8 -1 16v16q38 61 75 121.5t75 120.5h61v-236h56v-38h-56zM621 675q-116 -171 -231.5 -341t-231.5 -341q-10 2 -20 4.5t-21 4.5q116 172 231.5 342t231.5 342q10 -3 20 -5.5
t21 -5.5zM110 316v43h40v276q-22 -9 -43 -18t-43 -17q-2 11 -4.5 21t-4.5 20q35 12 69 23t72 22v-323l39 -24v-23h-125z" />
    <glyph glyph-name="onesuperior" unicode="&#xb9;" horiz-adv-x="322" 
d="M110 316v43h40v276q-22 -9 -43 -18t-43 -17q-2 11 -4.5 21t-4.5 20q35 12 69 23t72 22v-323l39 -24v-23h-125z" />
    <glyph glyph-name="threequarters" unicode="&#xbe;" horiz-adv-x="769" 
d="M589 260q0 10 0.5 26t0.5 27h-1q-30 -47 -57.5 -93t-56.5 -94h114v134zM634 88v-88h-45v88h-165q-1 8 -1 16t-1 16q38 61 75.5 121.5t75.5 120.5h61v-236h56v-38h-56zM620 675q-116 -171 -231.5 -341t-231.5 -341q-10 2 -20.5 4.5t-20.5 4.5q116 172 231.5 342t230.5 342
q11 -3 21 -5.5t21 -5.5zM261 417q0 -45 -29.5 -76t-85.5 -34q-23 0 -46.5 3.5t-43.5 12.5q2 11 2.5 22t2.5 23q36 -22 72 -22q42 0 61 20.5t19 49.5q0 68 -91 68q-8 0 -17 -0.5t-18 -0.5v38h29q46 0 66.5 19t20.5 50q0 23 -14.5 40.5t-49.5 17.5q-19 0 -35.5 -7t-29.5 -13
q-2 10 -4.5 19.5t-4.5 20.5q18 8 39.5 13.5t44.5 5.5q26 0 45 -7.5t31 -20t18 -28.5t6 -34q0 -29 -12.5 -52.5t-44.5 -37.5v-1q35 -8 52 -33t17 -56z" />
    <glyph glyph-name="threesuperior" unicode="&#xb3;" horiz-adv-x="323" 
d="M261 417q0 -48 -33 -79t-95 -31q-17 0 -39 4.5t-38 11.5q2 11 2.5 22.5t2.5 22.5q17 -11 36 -16t36 -5q42 0 61 20t19 49q0 68 -91 68q-8 0 -17 -0.5t-18 -0.5v38h29q46 0 66.5 19t20.5 50q0 23 -14.5 40.5t-49.5 17.5q-19 0 -35.5 -7t-29.5 -13q-2 10 -4.5 19.5
t-4.5 20.5q18 8 39.5 13.5t44.5 5.5q26 0 45 -7.5t31 -20t18 -28.5t6 -34q0 -29 -12.5 -52.5t-44.5 -37.5v-1q35 -8 52 -33t17 -56z" />
    <glyph glyph-name="twosuperior" unicode="&#xb2;" horiz-adv-x="330" 
d="M48 316v42q26 25 50.5 50t50.5 50q38 38 53.5 65t15.5 58q0 27 -16.5 46.5t-50.5 19.5q-7 0 -17 -2.5t-21 -7.5t-22 -12t-19 -15l-12 45q17 11 42.5 21.5t54.5 10.5t50 -9t34 -23t19 -32t6 -36q0 -29 -10.5 -53.5t-30 -50.5t-49 -55.5l-66.5 -66.5l164 -1v-44h-226z" />
    <glyph glyph-name="brokenbar" unicode="&#xa6;" horiz-adv-x="243" 
d="M99 362v396h44v-396h-44zM99 -242v400h44v-400h-44z" />
    <glyph glyph-name="minus" unicode="&#x2212;" horiz-adv-x="592" 
d="M69 273v42h454v-42h-454z" />
    <glyph glyph-name="multiply" unicode="&#xd7;" horiz-adv-x="592" 
d="M469 93l-174 171l-173 -171l-30 30l174 170l-174 171l31 31l174 -172l173 172l30 -30l-174 -171l174 -171z" />
    <glyph glyph-name="currency" unicode="&#xa4;" 
 />
    <glyph glyph-name="lslash" unicode="&#x142;" horiz-adv-x="276" 
d="M163 333v-333h-50v305l-99 -55l-8 43l107 58v385h50v-357l100 55l8 -44z" />
    <glyph glyph-name="exclam" unicode="!" horiz-adv-x="304" 
d="M179 177h-42l-10 522h61zM200 32q0 -17 -12.5 -29t-29.5 -12t-29 12t-12 29t12 29t29 12t29.5 -12t12.5 -29z" />
    <glyph glyph-name="quotedbl" unicode="&#x22;" horiz-adv-x="302" 
d="M238 485h-38l-9 213h56zM102 485h-38l-9 213h56z" />
    <glyph glyph-name="numbersign" unicode="#" horiz-adv-x="573" 
d="M415 448q-7 -46 -13.5 -91.5t-14.5 -90.5h115q-1 -10 -1.5 -19t-2.5 -19h-116q-8 -48 -15 -96.5t-15 -97.5h-42q8 49 15 97.5t15 96.5h-151q-8 -48 -15 -96.5t-15 -97.5h-42q8 49 15 97.5t15 96.5h-116q2 10 2.5 19t1.5 19h117q7 45 13.5 90.5t14.5 91.5h-118l2 18t2 19
h119q8 49 15 97t15 97h42q-8 -49 -15 -97t-15 -97h151q8 49 15 97t15 97h42q-8 -49 -15 -97t-15 -97h113q-1 -10 -2 -19l-2 -18h-114zM221 448q-7 -46 -13.5 -91.5t-13.5 -90.5h152q7 45 13.5 90.5t13.5 91.5h-152z" />
    <glyph glyph-name="dollar.001" 
 />
    <glyph glyph-name="ampersand" unicode="&#x26;" horiz-adv-x="753" 
d="M707 10q-12 -5 -24 -8t-24 -8q-23 11 -56 38t-69 62q-48 -47 -110.5 -75.5t-143.5 -28.5q-54 0 -94.5 16t-67 42t-39.5 60.5t-13 70.5q0 71 42 122t114 93q-50 52 -71 92t-21 83q0 30 11 57.5t31.5 48.5t51 33.5t69.5 12.5q36 0 63 -10.5t45.5 -28.5t28 -42.5t9.5 -52.5
t-7.5 -53.5t-24.5 -50t-45 -48.5t-69 -48q51 -56 114.5 -114.5t126.5 -112.5q31 41 51 98.5t20 123.5v12h51q0 -70 -21.5 -138.5t-66.5 -125.5q48 -45 85 -78.5t54 -41.5zM388 580q0 46 -26 72.5t-74 26.5q-26 0 -46 -9t-33.5 -24.5t-20.5 -35.5t-7 -41q0 -34 22.5 -71.5
t60.5 -79.5q28 17 51 34t39.5 36t25 41.5t8.5 50.5zM502 123q-66 57 -132.5 119.5t-118.5 120.5q-75 -45 -104.5 -87.5t-29.5 -91.5q0 -30 11 -57.5t33 -48.5t54 -33.5t73 -12.5q69 0 122.5 26t91.5 65z" />
    <glyph glyph-name="quotesingle" unicode="'" horiz-adv-x="166" 
d="M102 485h-38l-9 213h56z" />
    <glyph glyph-name="parenleft" unicode="(" horiz-adv-x="271" 
d="M204 -165q-80 102 -113 211t-33 234q0 123 33.5 235.5t113.5 216.5l41 -9q-72 -99 -105.5 -211t-33.5 -229q0 -129 35.5 -237.5t103.5 -201.5z" />
    <glyph glyph-name="parenright" unicode=")" horiz-adv-x="271" 
d="M218 282q0 -125 -34.5 -236t-111.5 -211l-41 9q66 92 102 202t36 235q0 121 -33 231.5t-107 210.5l42 9q83 -107 115 -217.5t32 -232.5z" />
    <glyph glyph-name="asterisk" unicode="*" horiz-adv-x="333" 
d="M194 544l61 -101l-31 -17l-57 102l-57 -102l-31 17l61 101l-118 -1v33l118 -1l-61 102l31 16l57 -102l57 102l31 -16l-61 -102l118 2v-34z" />
    <glyph glyph-name="plus" unicode="+" horiz-adv-x="592" 
d="M319 273v-207h-46v207h-204v42h203v207h46v-207h205v-42h-204z" />
    <glyph glyph-name="comma" unicode="," horiz-adv-x="209" 
d="M117 97q10 -25 10 -56q0 -34 -15.5 -77t-57.5 -91q-8 2 -15.5 4.5t-15.5 4.5q33 50 43 93t10 78q-2 8 -2 14q0 30 43 30z" />
    <glyph glyph-name="hyphen" unicode="-" horiz-adv-x="356" 
d="M59 272v45h243v-45h-243z" />
    <glyph glyph-name="period" unicode="." horiz-adv-x="209" 
d="M146 34q0 -17 -12 -29.5t-29 -12.5q-18 0 -30 12.5t-12 29.5t12 28.5t29 11.5t29.5 -11.5t12.5 -28.5z" />
    <glyph glyph-name="slash" unicode="/" horiz-adv-x="393" 
d="M50 -135h-47l345 859h48z" />
    <glyph glyph-name="zero" unicode="0" 
d="M481 345q0 -99 -19 -167t-49.5 -110t-70 -60t-81.5 -18q-47 0 -85.5 18t-65.5 58.5t-41.5 106t-14.5 159.5q0 97 17 165t47 111t70 62t87 19q42 0 79.5 -16t65.5 -55t44.5 -105.5t16.5 -167.5zM428 338q0 164 -40 236.5t-119 72.5q-72 0 -117.5 -75t-45.5 -233
q0 -73 9 -130t28.5 -96.5t50 -60t73.5 -20.5q75 0 118 78.5t43 227.5z" />
    <glyph glyph-name="one" unicode="1" 
d="M83 0v43h174v592l-172 -62q-1 20 -3 27.5t-4 19.5q57 20 114 39t116 34v-650h161v-43h-386z" />
    <glyph glyph-name="two" unicode="2" 
d="M54 0v45l189 195q44 45 73.5 79t47 63.5t25 57.5t7.5 61q0 65 -38 105.5t-110 40.5q-51 0 -93 -20.5t-71 -46.5q-3 13 -5.5 25t-5.5 24q15 10 34 20.5t41.5 19.5t48.5 14.5t55 5.5q50 0 87 -14t61 -38.5t36 -57.5t12 -71t-8.5 -70.5t-28.5 -66t-52.5 -71t-79.5 -85.5
q-42 -42 -83 -85t-83 -85v-2q19 0 45 0.5t65.5 0.5h96.5h140v-44h-406z" />
    <glyph glyph-name="three" unicode="3" 
d="M451 192q0 -46 -17 -83t-49 -63.5t-77 -41t-101 -14.5q-35 0 -70.5 8t-61.5 20l4 51q30 -17 66 -26.5t68 -9.5q90 0 137.5 42t47.5 108q0 75 -52 113t-143 38q-15 0 -38.5 -0.5t-37.5 -1.5v43h29q109 0 166 37.5t57 109.5q0 55 -36 90t-102 35q-40 0 -75.5 -12t-68.5 -31
l-4 48q32 14 69.5 25.5t83.5 11.5q45 0 80 -12t58 -33.5t35 -50.5t12 -62q0 -65 -34.5 -108.5t-100.5 -62.5v-2q32 -2 60 -15t49 -34.5t33.5 -51t12.5 -65.5z" />
    <glyph glyph-name="four" unicode="4" 
d="M394 181v-181h-50v181h-321q0 10 -0.5 19.5t-0.5 19.5q78 115 155.5 229.5t155.5 229.5h61v-454h111v-44h-111zM344 225v147v103v68v41t0.5 22t0.5 12h-2q-65 -100 -132 -197.5t-134 -196.5q30 0 66.5 0.5t72.5 0.5h69.5h58.5z" />
    <glyph glyph-name="five" unicode="5" 
d="M453 208q0 -45 -16 -84.5t-47 -69t-77.5 -47t-106.5 -17.5q-34 0 -65.5 6t-55.5 14v52q29 -14 62 -21.5t65 -7.5q47 0 82.5 12.5t59 35t35.5 53.5t12 67q0 77 -50 118.5t-142 41.5q-29 0 -58 -2.5t-47 -4.5v325h323v-46h-277v-233q16 1 36 2t37 1q59 0 102.5 -15
t72 -41.5t42 -62t13.5 -76.5z" />
    <glyph glyph-name="six" unicode="6" 
d="M485 219q0 -50 -15 -92t-43 -72.5t-67 -47.5t-87 -17q-98 0 -154.5 75t-56.5 220q0 96 20 170.5t57.5 126.5t91.5 79t122 27q20 0 42.5 -3t36.5 -7v-48q-16 7 -34 11t-40 4q-63 0 -107.5 -25t-74 -70t-45 -106.5t-21.5 -134.5h2q23 51 68.5 82.5t108.5 31.5
q48 0 84.5 -16.5t61 -44.5t37.5 -65t13 -78zM434 209q0 36 -9.5 67t-28.5 54.5t-48 37t-67 13.5t-68 -15t-50.5 -38.5t-31 -52t-10.5 -54.5q0 -36 10 -70.5t30.5 -61t50 -42.5t68.5 -16q36 0 64.5 13.5t48.5 37.5t30.5 56.5t10.5 70.5z" />
    <glyph glyph-name="seven" unicode="7" 
d="M480 652q-78 -164 -149 -329.5t-130 -322.5h-57q61 155 130 314t147 320h-368v45h427v-27v0z" />
    <glyph glyph-name="eight" unicode="8" 
d="M474 164q0 -34 -14 -65.5t-41 -55.5t-67.5 -38.5t-92.5 -14.5q-44 0 -80.5 12t-62.5 33.5t-40.5 52.5t-14.5 69q0 62 41.5 108.5t116.5 84.5v1q-138 66 -138 172q0 35 13.5 65t39 52.5t61 35.5t79.5 13q83 0 131.5 -43t48.5 -114q0 -56 -37 -99t-104 -78v-1
q33 -14 62 -31.5t51 -40.5t35 -52t13 -66zM402 527q0 59 -38.5 89t-96.5 30q-59 0 -96.5 -33t-37.5 -84q0 -50 32 -85.5t104 -67.5q63 29 98 66.5t35 84.5zM421 158q0 60 -41.5 99.5t-116.5 70.5q-67 -32 -108.5 -70.5t-41.5 -97.5q0 -26 10 -49t29.5 -40.5t49 -28
t68.5 -10.5q35 0 63 10.5t47.5 27.5t30 40t10.5 48z" />
    <glyph glyph-name="nine" unicode="9" 
d="M473 394q0 -104 -21 -180t-59 -125.5t-93 -73.5t-122 -24q-24 0 -47.5 3.5t-45.5 7.5v50q20 -8 43.5 -13.5t47.5 -5.5q106 0 164.5 63.5t72.5 186.5q2 20 4 38t4 38h-2q-26 -58 -72.5 -81t-99.5 -23q-45 0 -81 15.5t-61 43t-38.5 65.5t-13.5 84q0 51 15.5 92.5t44 71
t67 46t85.5 16.5q39 0 76.5 -12.5t67 -45.5t47 -90.5t17.5 -146.5zM415 455q0 42 -11 77t-31 60.5t-49 40t-65 14.5t-64.5 -13.5t-48.5 -37t-30.5 -55.5t-10.5 -69q0 -81 41 -127t110 -46q36 0 65.5 12.5t50 33.5t32 49.5t11.5 60.5z" />
    <glyph glyph-name="colon" unicode=":" horiz-adv-x="253" 
d="M178 416q0 -17 -12 -29t-29 -12q-18 0 -30 12t-12 29t12 29t30 12q17 0 29 -12t12 -29zM178 34q0 -17 -12 -29.5t-29 -12.5q-18 0 -30 12.5t-12 29.5t12 28.5t30 11.5q17 0 29 -11.5t12 -28.5z" />
    <glyph glyph-name="semicolon" unicode=";" horiz-adv-x="253" 
d="M179 416q0 -17 -12 -29t-29 -12t-29.5 12t-12.5 29t12.5 28.5t29.5 11.5t29 -11.5t12 -28.5zM150 97q10 -25 10 -56q0 -34 -15.5 -77t-57.5 -91q-8 2 -15.5 4.5t-15.5 4.5q33 50 43 93t10 78q-2 8 -2 14q0 30 43 30z" />
    <glyph glyph-name="less" unicode="&#x3c;" horiz-adv-x="592" 
d="M469 100q-5 -11 -9.5 -21t-9.5 -21q-80 53 -159 105t-158 106q-9 6 -18 13t-18 15q89 62 176.5 123t176.5 123q5 -10 9.5 -20t9.5 -20q-75 -53 -150 -104t-151 -104v-1q76 -48 151 -96.5t150 -97.5z" />
    <glyph glyph-name="equal" unicode="=" horiz-adv-x="592" 
d="M77 359v43h438v-43h-438zM77 186v43h438v-43h-438z" />
    <glyph glyph-name="greater" unicode="&#x3e;" horiz-adv-x="592" 
d="M494 292q-89 -59 -176.5 -117t-176.5 -117q-10 20 -19 41q75 49 150 97.5t151 97.5v1q-76 52 -151 103t-150 103q5 11 9.5 21.5t9.5 20.5q89 -63 177 -124.5t176 -126.5z" />
    <glyph glyph-name="question" unicode="?" horiz-adv-x="436" 
d="M386 537q0 -30 -8 -54.5t-22.5 -46.5t-33.5 -43t-41 -42q-16 -15 -28 -29t-19.5 -29t-11.5 -33t-4 -40t7 -44h-49q-5 13 -6 25t-1 23q0 37 12 64.5t30 50.5t39.5 43.5t39.5 42.5t30 47.5t12 59.5q0 52 -31.5 86.5t-94.5 34.5q-28 0 -56.5 -9t-55.5 -17q3 17 3 27.5
t1 23.5q21 8 48 16t57 8q45 0 79 -15t57 -39t35 -53.5t12 -57.5zM242 33q0 -17 -12.5 -28.5t-29.5 -11.5t-29 11.5t-12 28.5t12 29t29 12t29.5 -12t12.5 -29z" />
    <glyph glyph-name="at" unicode="@" horiz-adv-x="968" 
d="M876 374q0 -61 -15.5 -110.5t-42.5 -84t-64 -53.5t-79 -19q-59 0 -85.5 30t-26.5 75q0 3 0.5 6.5t0.5 6.5h-2q-16 -51 -54 -81.5t-87 -30.5q-66 0 -97 41.5t-31 109.5q0 48 11.5 94t33 82t54 58t74.5 22q24 0 45 -9t38 -21h1q1 8 1 16.5t1 17.5q24 0 47 -1t42 -3
q-3 -18 -8 -53.5t-10 -75.5t-9.5 -76.5t-7.5 -55.5q-1 -6 -1.5 -12t-0.5 -11q0 -41 19.5 -63t57.5 -22q31 0 58 15.5t46.5 44t30.5 68.5t11 90q0 62 -19 118t-58.5 98.5t-100.5 67.5t-145 25q-80 0 -147.5 -30t-116.5 -81.5t-76.5 -121t-27.5 -148.5q0 -76 22.5 -139.5
t65.5 -109t106 -71t145 -25.5q97 0 182 35q1 -11 2 -22.5t2 -23.5q-43 -15 -91 -23.5t-101 -8.5q-89 0 -159.5 28t-120.5 78.5t-76.5 121t-26.5 156.5q0 91 33 169t90 135t134 89.5t165 32.5q90 0 159 -27.5t115.5 -75t70 -110t23.5 -132.5zM582 416q-8 38 -31 54.5
t-52 16.5q-40 0 -69 -18.5t-48.5 -48.5t-29 -69t-9.5 -79q0 -20 3.5 -35t8.5 -26q12 -60 64 -60q28 0 53.5 18t46 50t35 76t21.5 96q2 6 3.5 12.5t3.5 12.5z" />
    <glyph glyph-name="A" unicode="A" horiz-adv-x="598" 
d="M525 0l-71 201h-313l-71 -201h-56l260 689h53l257 -689h-59zM323 561q-8 20 -13.5 36t-11.5 32h-1q-5 -15 -11 -32.5t-13 -34.5l-115 -317h280z" />
    <glyph glyph-name="B" unicode="B" horiz-adv-x="553" 
d="M494 198q0 -34 -10.5 -69t-37 -64t-71.5 -47.5t-114 -18.5h-32.5t-49.5 0.5t-49.5 0.5h-33.5v689h31t48.5 0.5t53 0.5h43.5q98 0 146.5 -43.5t48.5 -116.5q0 -63 -35 -106t-92 -60v-2q76 -8 115 -52.5t39 -111.5zM414 522q0 57 -34.5 91t-121.5 34h-23.5t-32.5 -0.5
t-32.5 -0.5h-22.5v-266q5 0 16.5 -0.5t24 -0.5h24h17.5q89 0 137 37t48 106zM441 195q0 40 -16.5 67t-45 43.5t-66.5 23.5t-82 7h-84v-291q4 0 18.5 -0.5t32 -1t34.5 -0.5h28q48 0 82.5 11.5t56.5 32t32 48t10 60.5z" />
    <glyph glyph-name="C" unicode="C" horiz-adv-x="609" 
d="M553 27q-35 -14 -81.5 -25.5t-106.5 -11.5q-74 0 -131.5 24t-97.5 68t-61 107.5t-21 141.5q0 84 22 152t64.5 116t104.5 74t142 26q47 0 87 -7t73 -17l-7 -51q-35 14 -75.5 22.5t-86.5 8.5q-66 0 -116 -23t-84.5 -64.5t-52 -100t-17.5 -129.5q0 -75 19 -132t54 -95
t84.5 -57t110.5 -19q48 0 92.5 11t77.5 28l7 -47v0z" />
    <glyph glyph-name="D" unicode="D" horiz-adv-x="684" 
d="M629 352q0 -78 -25.5 -142.5t-74 -111.5t-118 -73t-157.5 -26h-37t-47 0.5t-44.5 0.5h-29.5v689q11 0 35.5 0.5t52 0.5t53.5 0.5t40 0.5q167 0 259.5 -83.5t92.5 -255.5zM576 350q0 145 -76 221t-231 76h-26.5t-36.5 -0.5t-35.5 -0.5h-23.5v-600q7 -1 22.5 -1.5t32.5 -1
t32.5 -0.5h21.5q71 0 130 18t101 55.5t65.5 95.5t23.5 138z" />
    <glyph glyph-name="E" unicode="E" horiz-adv-x="506" 
d="M96 0v689h327v-43h-276v-273h260v-44h-260v-285h283v-44h-334z" />
    <glyph glyph-name="F" unicode="F" horiz-adv-x="469" 
d="M147 646v-276h259v-44h-259v-326h-51v689h327v-43h-276z" />
    <glyph glyph-name="G" unicode="G" horiz-adv-x="688" 
d="M595 40q-48 -23 -103.5 -36.5t-114.5 -13.5q-73 0 -133 24t-103 69t-66.5 108.5t-23.5 142.5q0 73 23.5 139.5t68 116.5t109.5 79.5t149 29.5q54 0 97.5 -9.5t84.5 -23.5q-2 -13 -4 -25.5t-4 -26.5q-42 17 -86 29t-95 12q-61 0 -114 -22t-92 -63t-61 -99t-22 -129
q0 -74 20.5 -131.5t57.5 -96.5t89 -59.5t114 -20.5q50 0 89 10t68 23v233h-79v52h131v-312z" />
    <glyph glyph-name="H" unicode="H" horiz-adv-x="696" 
d="M548 0v333h-401v-333h-51v689h51v-312h401v312h52v-689h-52z" />
    <glyph glyph-name="I" unicode="I" horiz-adv-x="243" 
d="M96 0v689h51v-689h-51z" />
    <glyph glyph-name="J" unicode="J" horiz-adv-x="324" 
d="M230 209q0 -104 -38.5 -161t-126.5 -57q-14 0 -31 2t-30 5v49q15 -5 33 -8.5t34 -3.5q54 0 80.5 40.5t26.5 136.5v477h52v-480z" />
    <glyph glyph-name="K" unicode="K" horiz-adv-x="553" 
d="M462 0q-77 88 -153 175.5t-161 172.5l-1 -348h-52v689h52l1 -330q80 80 155.5 163t152.5 167h66q-79 -84 -158 -167t-157 -167q83 -89 164.5 -177.5t164.5 -177.5h-74z" />
    <glyph glyph-name="L" unicode="L" horiz-adv-x="442" 
d="M96 0v689h51v-645h271v-44h-322z" />
    <glyph glyph-name="M" unicode="M" horiz-adv-x="870" 
d="M742 0l-48 611h-2l-238 -611h-46l-238 613h-1l-40 -613h-54l54 689h62l241 -624h2l240 624h64l57 -689h-53z" />
    <glyph glyph-name="N" unicode="N" horiz-adv-x="711" 
d="M560 0l-417 617h-1l5 -617h-52v689h59l415 -614h1l-5 614h52v-689h-57z" />
    <glyph glyph-name="O" unicode="O" horiz-adv-x="729" 
d="M678 354q0 -90 -25 -158t-68 -113.5t-101.5 -69t-124.5 -23.5q-77 0 -134.5 26.5t-96 73t-58 110t-19.5 138.5q0 82 23.5 149t66.5 114t102 73t131 26q70 0 126.5 -25t96 -70t60.5 -109t21 -142zM623 344q0 76 -18 134t-52 97.5t-81.5 59.5t-105.5 20q-54 0 -101.5 -21
t-82.5 -61t-55.5 -97.5t-20.5 -129.5q0 -71 17 -128t50 -98t80.5 -63t109.5 -22q54 0 101.5 20t83 59t55.5 97t20 133z" />
    <glyph glyph-name="P" unicode="P" horiz-adv-x="528" 
d="M478 499q0 -44 -17 -84t-49.5 -70.5t-79 -48.5t-105.5 -18h-16.5t-24 0.5t-24 1t-15.5 0.5v-280h-51v689q10 0 31.5 0.5t45.5 1t46.5 0.5h34.5q104 0 164 -47.5t60 -144.5zM424 491q0 80 -45.5 117.5t-136.5 37.5h-21h-28.5t-27.5 -0.5t-18 -0.5v-320q4 0 16 -0.5t25 -1
t25 -0.5h17q49 0 85.5 13t60.5 35.5t36 53t12 66.5z" />
    <glyph glyph-name="Q.001" horiz-adv-x="729" 
 />
    <glyph glyph-name="R" unicode="R" horiz-adv-x="546" 
d="M435 0q-25 42 -49 86t-51 87q-61 101 -144 144h-44v-317h-52v689q51 2 103.5 2.5t109.5 -4.5q76 -5 118 -51.5t42 -118.5q0 -44 -17 -78.5t-45.5 -59t-66 -38.5t-78.5 -17h5q18 -13 36 -29.5t43 -52.5q46 -67 83 -127.5t70 -115.5zM416 509q0 72 -45 105.5t-127 33.5
q-35 0 -56.5 -0.5t-40.5 -1.5v-284q18 0 40.5 -0.5t49.5 -0.5q83 0 131 39t48 109z" />
    <glyph glyph-name="S" unicode="S" horiz-adv-x="501" 
d="M440 177q0 -39 -15 -73t-44 -59.5t-72 -40t-98 -14.5q-38 0 -78.5 8.5t-67.5 20.5q1 14 2.5 27t2.5 27q34 -18 71.5 -28t71.5 -10q80 0 127 35t47 99q0 30 -9 52t-27 39.5t-44 32.5t-59 33q-38 20 -71 38.5t-58 40t-39.5 49.5t-14.5 66q0 36 14 68.5t41 57t67 39t93 14.5
q33 0 66.5 -5.5t56.5 -11.5q-2 -13 -2.5 -25.5t-2.5 -25.5q-24 10 -56 17t-67 7q-80 0 -119 -37t-39 -92q0 -30 10.5 -51.5t29 -38.5t44 -32t55.5 -32q36 -19 69.5 -37t59 -40t40.5 -50.5t15 -67.5z" />
    <glyph glyph-name="T" unicode="T" horiz-adv-x="517" 
d="M285 645v-645h-52v645h-209v44h470v-44h-209z" />
    <glyph glyph-name="U" unicode="U" horiz-adv-x="680" 
d="M588 269q0 -279 -255 -279q-70 0 -116.5 19t-74 53t-39 81.5t-11.5 104.5v441h51v-434q0 -45 8.5 -85t30.5 -70.5t60.5 -48t97.5 -17.5q98 0 148 53t50 173v429h50v-420v0z" />
    <glyph glyph-name="V" unicode="V" horiz-adv-x="615" 
d="M325 0h-48l-254 689h60l220 -624h1l231 624h55z" />
    <glyph glyph-name="W" unicode="W" horiz-adv-x="915" 
d="M694 0h-57l-177 608h-1l-178 -608h-58l-194 689h57l168 -625h2l180 625h52l178 -625h1q38 146 56 213.5t110 411.5h53z" />
    <glyph glyph-name="X" unicode="X" horiz-adv-x="567" 
d="M474 0l-191 313h-1l-196 -313h-60l227 351l-209 338h61l179 -298h1l182 298h59l-212 -335l224 -354h-64z" />
    <glyph glyph-name="Y" unicode="Y" horiz-adv-x="524" 
d="M286 258v-258h-52v257l-212 432h57l182 -386h2l188 386h55z" />
    <glyph glyph-name="Z" unicode="Z" horiz-adv-x="553" 
d="M40 0v24q102 154 200 311t204 309h-43.5t-66 -0.5t-107 -0.5h-166.5v46h447v-23q-101 -156 -200.5 -311.5t-202.5 -310.5q14 1 37 1.5t66.5 0.5h115h183.5v-46h-467z" />
    <glyph glyph-name="bracketleft" unicode="[" horiz-adv-x="279" 
d="M78 -173v901h167v-40h-120v-821h120v-40h-167z" />
    <glyph glyph-name="backslash" unicode="\" horiz-adv-x="389" 
d="M349 -135l-346 859h48l345 -859h-47z" />
    <glyph glyph-name="bracketright" unicode="]" horiz-adv-x="279" 
d="M34 -173v40h120v821h-120v40h167v-901h-167z" />
    <glyph glyph-name="asciicircum" unicode="^" 
d="M455 348q-11 -2 -22 -4.5t-22 -4.5q-38 75 -77 148.5t-77 147.5h-1q-36 -74 -72.5 -147.5t-72.5 -148.5q-10 2 -20 4.5t-21 4.5q43 86 85 171t85 171h35l180 -342v0z" />
    <glyph glyph-name="underscore" unicode="_" horiz-adv-x="494" 
d="M0 -192v44h494v-44h-494z" />
    <glyph glyph-name="grave" unicode="`" horiz-adv-x="316" 
d="M197 580l-121 143l44 14l113 -145z" />
    <glyph glyph-name="a" unicode="a" horiz-adv-x="508" 
d="M373 0v105h-2q-20 -51 -66.5 -83t-108.5 -32q-34 0 -60.5 11t-45 29t-28 42.5t-9.5 51.5q0 44 18.5 73.5t57.5 49.5t99 32t142 20q0 86 -25.5 126.5t-95.5 40.5q-41 0 -81.5 -15t-72.5 -39q-2 12 -4 25t-4 25q31 18 76 32.5t92 14.5q88 0 127 -45.5t38 -129.5l-2 -194
q-1 -36 -1 -74.5t4 -65.5h-48zM370 258q-78 -8 -129 -17.5t-81 -24t-42.5 -35.5t-12.5 -51q0 -39 25.5 -68.5t74.5 -29.5q36 0 66.5 15t52 41.5t34 61.5t12.5 75v33z" />
    <glyph glyph-name="c" unicode="c" horiz-adv-x="445" 
d="M411 23q-27 -13 -65 -22.5t-82 -9.5t-83.5 14.5t-69.5 45t-47.5 77t-17.5 109.5q0 62 17 112t48 85.5t75 54.5t99 19q37 0 69 -6.5t56 -16.5l-7 -48q-24 11 -56.5 20.5t-70.5 9.5q-42 0 -74.5 -17t-55.5 -46.5t-35 -70.5t-12 -89q0 -47 9.5 -85.5t30.5 -66.5t53.5 -43.5
t78.5 -15.5q40 0 73.5 10t59.5 25l7 -45v0z" />
    <glyph glyph-name="d" unicode="d" horiz-adv-x="559" 
d="M420 0v107h-2q-22 -51 -67 -84t-111 -33q-48 0 -84.5 18t-61 50t-36.5 76.5t-12 97.5q0 63 16 113.5t45 86t69.5 54.5t89.5 19q26 0 50 -8t43.5 -20.5t35 -27.5t25.5 -32v313l46 5v-735h-46zM418 359q-11 21 -25.5 40.5t-33.5 33.5t-43.5 22.5t-54.5 8.5q-75 0 -119 -61
t-44 -168q0 -44 9 -81.5t27.5 -64.5t46 -42.5t64.5 -15.5q46 0 79 20.5t54 51t30.5 66.5t9.5 68v122z" />
    <glyph glyph-name="e" unicode="e" horiz-adv-x="503" 
d="M453 284v-11t-1 -14h-353v-11q0 -107 45.5 -161t130.5 -54q42 0 80 12.5t71 35.5q2 -12 3.5 -24t3.5 -23q-33 -19 -75 -31.5t-93 -12.5q-49 0 -89 15t-69 46.5t-45 80.5t-16 118q0 53 15 100t42.5 82.5t68 56t91.5 20.5t87.5 -18.5t59 -49.5t33 -72t10.5 -85zM400 301
q-1 79 -38 123t-102 44q-33 0 -60 -12.5t-47.5 -34.5t-33 -53t-17.5 -67h298z" />
    <glyph glyph-name="f" unicode="f" horiz-adv-x="316" 
d="M348 687q-16 7 -34.5 10t-37.5 3q-60 0 -85 -39t-25 -99v-63h148v-42h-148v-457h-49v457h-106v42h106v64q0 51 13.5 85t36 55t52 30t62.5 9q40 0 70 -9l-3 -46v0z" />
    <glyph glyph-name="g.001" horiz-adv-x="546" 
 />
    <glyph glyph-name="h" unicode="h" horiz-adv-x="561" 
d="M424 0v309q0 80 -26.5 119t-91.5 39q-31 0 -60.5 -12t-53 -37.5t-37.5 -64.5t-14 -93v-260h-50v735l50 -10v-251q0 -24 -1 -43t-4 -36q1 0 1 -0.5t1 -0.5q23 51 68 83t110 32q43 0 72.5 -13.5t48.5 -37.5t27.5 -58t8.5 -76v-324h-49z" />
    <glyph glyph-name="i" unicode="i" horiz-adv-x="233" 
d="M152 666q0 -14 -10.5 -24.5t-25.5 -10.5q-13 0 -23.5 9t-10.5 26q0 16 10.5 25t23.5 9q15 0 25.5 -9t10.5 -25zM92 0v499h49v-499h-49z" />
    <glyph glyph-name="j" unicode="j" horiz-adv-x="238" 
d="M146 -23q0 -113 -37 -168t-124 -55q-18 0 -36.5 4.5t-32.5 9.5l4 48q15 -8 33 -13t38 -5q61 0 83.5 43t22.5 131v527h49v-522zM158 666q0 -14 -10.5 -24.5t-25.5 -10.5q-13 0 -23.5 9t-10.5 26q0 16 10.5 25t23.5 9q15 0 25.5 -9t10.5 -25z" />
    <glyph glyph-name="k" unicode="k" horiz-adv-x="456" 
d="M366 0q-57 63 -112.5 127t-111.5 128l-1 -255h-50v725l50 10l1 -470q54 58 106.5 116.5t106.5 116.5h62q-55 -59 -110 -117.5t-110 -117.5q60 -66 119 -131.5t119 -131.5h-69z" />
    <glyph glyph-name="l" unicode="l" horiz-adv-x="233" 
d="M92 0v726l49 10v-736h-49z" />
    <glyph glyph-name="m" unicode="m" horiz-adv-x="862" 
d="M91 498h48v-99q22 50 65 80t103 30q40 0 66.5 -12t42.5 -30t23.5 -39t9.5 -39q8 22 23 44t36.5 38.5t49.5 27t63 10.5q79 0 116 -48.5t37 -136.5v-324h-50v310q0 37 -5 66t-17 49t-33.5 31t-54.5 11q-36 0 -65 -17.5t-49 -49t-31 -76t-11 -98.5v-226h-50v312
q0 76 -25 115.5t-87 39.5q-37 0 -66 -17.5t-48.5 -49.5t-30 -77t-10.5 -100v-223h-50v498z" />
    <glyph glyph-name="n" unicode="n" horiz-adv-x="561" 
d="M424 0v304q0 81 -26 122t-91 41q-37 0 -67.5 -15.5t-52.5 -42.5t-34 -63.5t-12 -79.5v-266h-49v499h47v-103v-1q23 54 69 84t109 30q43 0 73 -14t49 -39.5t27 -60t8 -74.5v-321h-50z" />
    <glyph glyph-name="o" unicode="o" horiz-adv-x="548" 
d="M501 252q0 -53 -15 -100.5t-44 -83.5t-73 -57t-101 -21q-53 0 -94.5 18.5t-70 52.5t-43.5 81.5t-15 104.5q0 63 17.5 111.5t48.5 82t74 51t95 17.5q46 0 86.5 -15.5t70.5 -47t47 -80t17 -114.5zM450 251q0 106 -45.5 161t-129.5 55q-37 0 -69.5 -14t-56.5 -41.5t-38 -68
t-14 -94.5q0 -99 46.5 -158t131.5 -59q39 0 71 14.5t55.5 42.5t36 69t12.5 93z" />
    <glyph glyph-name="r" unicode="r" horiz-adv-x="344" 
d="M322 502q-1 -13 -1 -25v-25l-22 6t-23 3q-58 0 -97 -58.5t-39 -183.5v-219h-49v498h50q0 -27 -1.5 -58.5t-5.5 -62.5h2q14 55 50.5 92.5t93.5 37.5q11 0 21.5 -1.5t20.5 -3.5z" />
    <glyph glyph-name="s" unicode="s" horiz-adv-x="414" 
d="M360 133q0 -27 -12 -53t-35 -46t-58.5 -32t-81.5 -12q-33 0 -65 7.5t-50 16.5q1 14 2 27t3 27q23 -16 56 -25.5t62 -9.5q62 0 95 27t33 69q0 28 -18.5 47t-46.5 33t-61 27.5t-61 30.5t-46.5 41.5t-18.5 62.5q0 63 48 100.5t128 37.5q29 0 57 -6.5t47 -14.5l-2 -24t-2 -25
q-23 13 -51 20.5t-57 7.5q-57 0 -87 -25t-30 -66q0 -31 18.5 -50.5t46.5 -34t61 -26.5t61 -29t46.5 -41t18.5 -62z" />
    <glyph glyph-name="t" unicode="t" horiz-adv-x="338" 
d="M309 5q-17 -5 -39 -9.5t-42 -4.5q-65 0 -91 32.5t-26 104.5v329h-106v42h106v147q5 2 19 5.5t30 9.5v-162h147v-42h-147v-312q0 -62 16.5 -86t61.5 -24q17 0 35.5 4.5t31.5 9.5l4 -44v0z" />
    <glyph glyph-name="u" unicode="u" horiz-adv-x="562" 
d="M419 0q0 6 0.5 21t1 31.5t1.5 31t2 19.5l-2 1q-23 -56 -68 -85t-105 -29q-45 0 -76 14t-50 39.5t-27.5 62t-8.5 80.5v313h50v-297q0 -83 26 -126.5t94 -43.5q37 0 67 15t51.5 41.5t33 64t11.5 82.5v264h50v-499h-51z" />
    <glyph glyph-name="v" unicode="v" horiz-adv-x="461" 
d="M253 0h-50l-191 499h57l160 -448h1l164 448h55z" />
    <glyph glyph-name="w" unicode="w" horiz-adv-x="743" 
d="M561 0h-55l-137 432h-2l-136 -432h-57l-154 499h57l127 -445h2l139 445h54l135 -446h2l133 446h53z" />
    <glyph glyph-name="x" unicode="x" horiz-adv-x="472" 
d="M378 0q-35 53 -71 106.5t-74 105.5q-38 -51 -74.5 -105.5t-72.5 -106.5h-62q46 61 91 122t91 123q-45 63 -88 126.5t-88 126.5h62q35 -55 70.5 -107.5t73.5 -108.5h1q39 54 75 108l72 108h59q-45 -63 -90 -125.5t-90 -125.5q45 -62 90.5 -123.5t90.5 -123.5h-66z" />
    <glyph glyph-name="y" unicode="y" horiz-adv-x="456" 
d="M222 -82q-19 -47 -39 -78.5t-42.5 -50.5t-49 -27t-58.5 -8q-11 0 -23.5 2.5t-20.5 4.5l4 47q9 -3 23 -5t26 -2q39 0 69 24t58 86l34 91l-191 497h57l159 -440h2l161 440h54z" />
    <glyph glyph-name="z" unicode="z" horiz-adv-x="452" 
d="M40 0v25q75 108 150 215t150 216q-17 0 -37 -0.5t-52.5 -0.5h-80h-117.5v43h352v-22q-75 -109 -149.5 -216.5t-149.5 -216.5h37.5t55 0.5t83 0.5h121.5v-44h-363z" />
    <glyph glyph-name="braceleft" unicode="{" horiz-adv-x="302" 
d="M274 -168q-38 0 -64 11t-42 30.5t-23 47.5t-7 63v151q0 33 -3 56.5t-13.5 39.5t-29.5 24.5t-51 11.5v37q28 3 46.5 10t29.5 20.5t16 34.5t5 52v152q0 34 7 60.5t23 46t42 31.5t64 16v-37q-53 -2 -71 -33t-18 -84v-150q0 -60 -21 -92.5t-63 -43.5v-1q51 -11 67.5 -49
t16.5 -102v-146q0 -31 3.5 -53t13.5 -37t27.5 -22.5t44.5 -8.5v-36v0z" />
    <glyph glyph-name="bar" unicode="|" horiz-adv-x="243" 
d="M99 -242v1000h44v-1000h-44z" />
    <glyph glyph-name="braceright" unicode="}" horiz-adv-x="299" 
d="M264 267q-32 -3 -51 -11.5t-29 -24.5t-13 -39.5t-3 -56.5v-151q0 -70 -31 -111t-106 -41v36q53 2 71 31t18 90v146q0 63 16.5 101.5t68.5 49.5v1q-85 18 -85 134v152q0 55 -18 85.5t-71 31.5v37q77 -9 107 -47.5t30 -106.5v-150q0 -32 4.5 -53t15.5 -35t29.5 -21
t46.5 -10v-37v0z" />
    <glyph glyph-name="asciitilde" unicode="~" 
d="M476 437q-2 -55 -32 -89.5t-84 -34.5q-35 0 -57.5 14t-41.5 31.5t-37 31.5t-43 14q-41 0 -61 -23t-21 -58l-39 1q0 53 29 89t86 36q36 0 60 -15.5t41 -31.5q23 -23 40.5 -35.5t45.5 -12.5q38 0 55.5 25t19.5 59l39 -1v0z" />
    <glyph glyph-name="Adieresis" unicode="&#xc4;" horiz-adv-x="598" 
 />
    <glyph glyph-name="Aring" unicode="&#xc5;" horiz-adv-x="598" 
 />
    <glyph glyph-name="Ccedilla" unicode="&#xc7;" horiz-adv-x="609" 
d="M553 27q-35 -14 -81.5 -25.5t-106.5 -11.5q-74 0 -131.5 24t-97.5 68t-61 107.5t-21 141.5q0 84 22 152t64.5 116t104.5 74t142 26q47 0 87 -7t73 -17l-7 -51q-35 14 -75.5 22.5t-86.5 8.5q-66 0 -116 -23t-84.5 -64.5t-52 -100t-17.5 -129.5q0 -75 19 -132t54 -95
t84.5 -57t110.5 -19q48 0 92.5 11t77.5 28zM363 -50q26 -11 43.5 -28t17.5 -47q0 -24 -5.5 -38t-17.5 -23.5t-30.5 -16.5t-43.5 -17q-8 5 -14.5 10t-14.5 10l35 14t24.5 12.5t14 16t4.5 23.5q0 16 -9 25.5t-23 15.5q-3 0 -6 -0.5t-7 -0.5q-5 33 -12 66q8 2 15 3t14 3
q4 -8 7.5 -14.5t7.5 -13.5z" />
    <glyph glyph-name="Eacute" unicode="&#xc9;" horiz-adv-x="506" 
 />
    <glyph glyph-name="Ntilde" unicode="&#xd1;" horiz-adv-x="711" 
 />
    <glyph glyph-name="Odieresis" unicode="&#xd6;" horiz-adv-x="729" 
 />
    <glyph glyph-name="Udieresis" unicode="&#xdc;" horiz-adv-x="680" 
 />
    <glyph glyph-name="aacute" unicode="&#xe1;" horiz-adv-x="508" 
d="M370 0q0 27 0.5 54t2.5 51h-2q-20 -51 -66.5 -83t-108.5 -32q-34 0 -60.5 11t-45 29t-28 42.5t-9.5 51.5q0 44 18.5 74t57.5 50t99 32t142 20q0 86 -25.5 126t-95.5 40q-41 0 -81.5 -15t-72.5 -39q-2 12 -4 25t-4 25q31 18 76 32.5t92 14.5q88 0 126 -45.5t38 -129.5
v-188q0 -36 0.5 -73.5t1.5 -72.5h-51zM370 258q-78 -8 -129 -17.5t-81 -24t-42.5 -35.5t-12.5 -51q0 -39 25.5 -68.5t74.5 -29.5q36 0 66.5 15t52 41.5t34 61.5t12.5 75v33zM238 580l-36 12l112 145l44 -14z" />
    <glyph glyph-name="agrave" unicode="&#xe0;" horiz-adv-x="508" 
d="M370 0q0 27 0.5 54t2.5 51h-2q-20 -51 -66.5 -83t-108.5 -32q-34 0 -60.5 11t-45 29t-28 42.5t-9.5 51.5q0 44 18.5 74t57.5 50t99 32t142 20q0 86 -25.5 126t-95.5 40q-41 0 -81.5 -15t-72.5 -39q-2 12 -4 25t-4 25q31 18 76 32.5t92 14.5q88 0 126 -45.5t38 -129.5
v-188q0 -36 0.5 -73.5t1.5 -72.5h-51zM370 258q-78 -8 -129 -17.5t-81 -24t-42.5 -35.5t-12.5 -51q0 -39 25.5 -68.5t74.5 -29.5q36 0 66.5 15t52 41.5t34 61.5t12.5 75v33zM278 580l-121 143l44 14l113 -145z" />
    <glyph glyph-name="acircumflex" unicode="&#xe2;" horiz-adv-x="508" 
d="M370 0q0 27 0.5 54t2.5 51h-2q-20 -51 -66.5 -83t-108.5 -32q-34 0 -60.5 11t-45 29t-28 42.5t-9.5 51.5q0 44 18.5 74t57.5 50t99 32t142 20q0 86 -25.5 126t-95.5 40q-41 0 -81.5 -15t-72.5 -39q-2 12 -4 25t-4 25q31 18 76 32.5t92 14.5q88 0 126 -45.5t38 -129.5
v-188q0 -36 0.5 -73.5t1.5 -72.5h-51zM370 258q-78 -8 -129 -17.5t-81 -24t-42.5 -35.5t-12.5 -51q0 -39 25.5 -68.5t74.5 -29.5q36 0 66.5 15t52 41.5t34 61.5t12.5 75v33zM375 592q-9 -3 -17.5 -6t-17.5 -6q-23 26 -44.5 52.5t-43.5 52.5q-23 -26 -44.5 -52.5t-44.5 -52.5
q-8 3 -16.5 5.5t-16.5 5.5q24 33 47.5 65.5t46.5 65.5q8 5 17 8.5t17 8.5z" />
    <glyph glyph-name="adieresis" unicode="&#xe4;" horiz-adv-x="508" 
d="M370 0q0 27 0.5 54t2.5 51h-2q-20 -51 -66.5 -83t-108.5 -32q-34 0 -60.5 11t-45 29t-28 42.5t-9.5 51.5q0 44 18.5 74t57.5 50t99 32t142 20q0 86 -25.5 126t-95.5 40q-41 0 -81.5 -15t-72.5 -39q-2 12 -4 25t-4 25q31 18 76 32.5t92 14.5q88 0 126 -45.5t38 -129.5
v-188q0 -36 0.5 -73.5t1.5 -72.5h-51zM370 258q-78 -8 -129 -17.5t-81 -24t-42.5 -35.5t-12.5 -51q0 -39 25.5 -68.5t74.5 -29.5q36 0 66.5 15t52 41.5t34 61.5t12.5 75v33zM374 633q0 -16 -11 -26.5t-27 -10.5q-14 0 -26 10t-12 27t12 26.5t26 9.5q15 0 26.5 -10t11.5 -26z
M200 633q0 -16 -11 -26.5t-27 -10.5q-14 0 -26 10t-12 27t12 26.5t26 9.5q15 0 26 -10t11 -26h1z" />
    <glyph glyph-name="atilde" unicode="&#xe3;" horiz-adv-x="508" 
d="M370 0q0 27 0.5 54t2.5 51h-2q-20 -51 -66.5 -83t-108.5 -32q-34 0 -60.5 11t-45 29t-28 42.5t-9.5 51.5q0 44 18.5 74t57.5 50t99 32t142 20q0 86 -25.5 126t-95.5 40q-41 0 -81.5 -15t-72.5 -39q-2 12 -4 25t-4 25q31 18 76 32.5t92 14.5q88 0 126 -45.5t38 -129.5
v-188q0 -36 0.5 -73.5t1.5 -72.5h-51zM370 258q-78 -8 -129 -17.5t-81 -24t-42.5 -35.5t-12.5 -51q0 -39 25.5 -68.5t74.5 -29.5q36 0 66.5 15t52 41.5t34 61.5t12.5 75v33zM408 686q-10 -40 -33.5 -65.5t-58.5 -25.5q-22 0 -39 9.5t-32 21.5t-29.5 21.5t-31.5 9.5
q-41 0 -58 -61q-8 2 -15.5 5t-15.5 5q10 42 34 66t58 24q22 0 40 -9.5t33.5 -21t30 -21t29.5 -9.5q17 0 32.5 15.5t24.5 45.5q8 -2 15.5 -5t15.5 -5z" />
    <glyph glyph-name="aring" unicode="&#xe5;" horiz-adv-x="508" 
d="M370 0q0 27 0.5 54t2.5 51h-2q-20 -51 -66.5 -83t-108.5 -32q-34 0 -60.5 11t-45 29t-28 42.5t-9.5 51.5q0 44 18.5 74t57.5 50t99 32t142 20q0 86 -25.5 126t-95.5 40q-41 0 -81.5 -15t-72.5 -39q-2 12 -4 25t-4 25q31 18 76 32.5t92 14.5q88 0 126 -45.5t38 -129.5
v-188q0 -36 0.5 -73.5t1.5 -72.5h-51zM370 258q-78 -8 -129 -17.5t-81 -24t-42.5 -35.5t-12.5 -51q0 -39 25.5 -68.5t74.5 -29.5q36 0 66.5 15t52 41.5t34 61.5t12.5 75v33zM355 664q0 -20 -7.5 -37t-21 -29.5t-31.5 -20t-39 -7.5q-42 0 -70.5 25.5t-28.5 68.5q0 41 29 67
t70 26q42 0 70.5 -26t28.5 -67zM316 664q0 26 -17 42t-43 16t-43 -16.5t-17 -41.5q0 -26 17 -42t43 -16t43 16t17 42z" />
    <glyph glyph-name="ccedilla" unicode="&#xe7;" horiz-adv-x="445" 
d="M411 23q-27 -13 -65 -22.5t-82 -9.5t-83.5 14.5t-69.5 45t-47.5 77t-17.5 109.5q0 62 17 112t48 85.5t75 54.5t99 19q37 0 69 -6.5t56 -16.5l-7 -48q-24 11 -56.5 20.5t-70.5 9.5q-42 0 -74.5 -17t-55.5 -46.5t-35 -70.5t-12 -89q0 -47 9.5 -85.5t30.5 -66.5t53.5 -43.5
t78.5 -15.5q40 0 73.5 10t59.5 25zM261 -50q26 -11 43.5 -28t17.5 -47q0 -24 -5.5 -38t-17.5 -23.5t-30.5 -16.5t-43.5 -17q-8 5 -14.5 10t-14.5 10l35 14t24.5 12.5t14 16t4.5 23.5q0 16 -9 25.5t-23 15.5q-3 0 -6 -0.5t-7 -0.5q-5 33 -12 66q8 2 15 3t14 3q4 -8 7.5 -14.5
t7.5 -13.5z" />
    <glyph glyph-name="eacute" unicode="&#xe9;" horiz-adv-x="503" 
d="M453 284v-11t-1 -14h-353v-13q0 -107 45.5 -160t130.5 -53q42 0 80 12.5t71 35.5q2 -12 3.5 -24t3.5 -23q-33 -19 -75 -31.5t-93 -12.5q-49 0 -89 15t-69 46.5t-45 80.5t-16 118q0 53 15 100t42.5 82.5t68 56t91.5 20.5t87.5 -18.5t59 -49.5t33 -72t10.5 -85zM400 301
q-1 79 -38 123t-102 44q-33 0 -60 -12.5t-47.5 -34.5t-33 -53t-17.5 -67h298zM242 580l-36 12l112 145l44 -14z" />
    <glyph glyph-name="egrave" unicode="&#xe8;" horiz-adv-x="503" 
d="M453 284v-11t-1 -14h-353v-13q0 -107 45.5 -160t130.5 -53q42 0 80 12.5t71 35.5q2 -12 3.5 -24t3.5 -23q-33 -19 -75 -31.5t-93 -12.5q-49 0 -89 15t-69 46.5t-45 80.5t-16 118q0 53 15 100t42.5 82.5t68 56t91.5 20.5t87.5 -18.5t59 -49.5t33 -72t10.5 -85zM400 301
q-1 79 -38 123t-102 44q-33 0 -60 -12.5t-47.5 -34.5t-33 -53t-17.5 -67h298zM281 580l-121 143l44 14l113 -145z" />
    <glyph glyph-name="ecircumflex" unicode="&#xea;" horiz-adv-x="503" 
d="M453 284v-11t-1 -14h-353v-13q0 -107 45.5 -160t130.5 -53q42 0 80 12.5t71 35.5q2 -12 3.5 -24t3.5 -23q-33 -19 -75 -31.5t-93 -12.5q-49 0 -89 15t-69 46.5t-45 80.5t-16 118q0 53 15 100t42.5 82.5t68 56t91.5 20.5t87.5 -18.5t59 -49.5t33 -72t10.5 -85zM400 301
q-1 79 -38 123t-102 44q-33 0 -60 -12.5t-47.5 -34.5t-33 -53t-17.5 -67h298zM379 592q-9 -3 -17.5 -6t-17.5 -6q-23 26 -44.5 52.5t-43.5 52.5q-23 -26 -44.5 -52.5t-44.5 -52.5q-8 3 -16.5 5.5t-16.5 5.5q24 33 47.5 65.5t46.5 65.5q8 5 17 8.5t17 8.5z" />
    <glyph glyph-name="edieresis" unicode="&#xeb;" horiz-adv-x="503" 
d="M453 284v-11t-1 -14h-353v-13q0 -107 45.5 -160t130.5 -53q42 0 80 12.5t71 35.5q2 -12 3.5 -24t3.5 -23q-33 -19 -75 -31.5t-93 -12.5q-49 0 -89 15t-69 46.5t-45 80.5t-16 118q0 53 15 100t42.5 82.5t68 56t91.5 20.5t87.5 -18.5t59 -49.5t33 -72t10.5 -85zM400 301
q-1 79 -38 123t-102 44q-33 0 -60 -12.5t-47.5 -34.5t-33 -53t-17.5 -67h298zM382 633q0 -16 -11 -26.5t-27 -10.5q-14 0 -26 10t-12 27t12 26.5t26 9.5q15 0 26.5 -10t11.5 -26zM208 633q0 -16 -11 -26.5t-27 -10.5q-14 0 -26 10t-12 27t12 26.5t26 9.5q15 0 26 -10t11 -26
h1z" />
    <glyph glyph-name="iacute" unicode="&#xed;" horiz-adv-x="233" 
d="M92 0v499h49v-499h-49zM91 580l-36 12l112 145l44 -14z" />
    <glyph glyph-name="igrave" unicode="&#xec;" horiz-adv-x="233" 
d="M92 0v499h49v-499h-49zM141 580l-121 143l44 14l113 -145z" />
    <glyph glyph-name="icircumflex" unicode="&#xee;" horiz-adv-x="233" 
d="M92 0v499h49v-499h-49zM239 592q-9 -3 -17.5 -6t-17.5 -6q-23 26 -44.5 52.5t-43.5 52.5q-23 -26 -44.5 -52.5t-44.5 -52.5q-8 3 -16.5 5.5t-16.5 5.5q24 33 47.5 65.5t46.5 65.5q8 5 17 8.5t17 8.5z" />
    <glyph glyph-name="idieresis" unicode="&#xef;" horiz-adv-x="233" 
d="M92 0v499h49v-499h-49zM241 633q0 -16 -11 -26.5t-27 -10.5q-14 0 -26 10t-12 27t12 26.5t26 9.5q15 0 26.5 -10t11.5 -26zM67 633q0 -16 -11 -26.5t-27 -10.5q-14 0 -26 10t-12 27t12 26.5t26 9.5q15 0 26 -10t11 -26h1z" />
    <glyph glyph-name="ntilde" unicode="&#xf1;" horiz-adv-x="561" 
d="M424 0v304q0 81 -26 122t-91 41q-37 0 -67.5 -15.5t-52.5 -42.5t-34 -63.5t-12 -79.5v-266h-49v499h50v-21t-1 -31.5t-2 -31t-2 -19.5l2 -1q23 54 69 84t109 30q43 0 73 -14t49 -39.5t27 -60t8 -74.5v-321h-50zM446 686q-10 -40 -33.5 -65.5t-58.5 -25.5q-22 0 -39 9.5
t-32 21.5t-29.5 21.5t-31.5 9.5q-41 0 -58 -61q-8 2 -15.5 5t-15.5 5q10 42 34 66t58 24q22 0 40 -9.5t33.5 -21t30 -21t29.5 -9.5q17 0 32.5 15.5t24.5 45.5q8 -2 15.5 -5t15.5 -5z" />
    <glyph glyph-name="oacute" unicode="&#xf3;" horiz-adv-x="548" 
d="M501 252q0 -53 -15 -100.5t-44 -83.5t-73 -57t-101 -21q-53 0 -94.5 18.5t-70 52.5t-43.5 81.5t-15 104.5q0 63 17.5 111.5t48.5 82t74 51t95 17.5q46 0 86.5 -15.5t70.5 -47t47 -80t17 -114.5zM450 251q0 106 -45.5 161t-129.5 55q-37 0 -69.5 -14t-56.5 -41.5t-38 -68
t-14 -94.5q0 -99 46.5 -158t131.5 -59q39 0 71 14.5t55.5 42.5t36 69t12.5 93zM258 580l-36 12l112 145l44 -14z" />
    <glyph glyph-name="ograve" unicode="&#xf2;" horiz-adv-x="548" 
d="M501 252q0 -53 -15 -100.5t-44 -83.5t-73 -57t-101 -21q-53 0 -94.5 18.5t-70 52.5t-43.5 81.5t-15 104.5q0 63 17.5 111.5t48.5 82t74 51t95 17.5q46 0 86.5 -15.5t70.5 -47t47 -80t17 -114.5zM450 251q0 106 -45.5 161t-129.5 55q-37 0 -69.5 -14t-56.5 -41.5t-38 -68
t-14 -94.5q0 -99 46.5 -158t131.5 -59q39 0 71 14.5t55.5 42.5t36 69t12.5 93zM302 580l-121 143l44 14l113 -145z" />
    <glyph glyph-name="ocircumflex" unicode="&#xf4;" horiz-adv-x="548" 
d="M501 252q0 -53 -15 -100.5t-44 -83.5t-73 -57t-101 -21q-53 0 -94.5 18.5t-70 52.5t-43.5 81.5t-15 104.5q0 63 17.5 111.5t48.5 82t74 51t95 17.5q46 0 86.5 -15.5t70.5 -47t47 -80t17 -114.5zM450 251q0 106 -45.5 161t-129.5 55q-37 0 -69.5 -14t-56.5 -41.5t-38 -68
t-14 -94.5q0 -99 46.5 -158t131.5 -59q39 0 71 14.5t55.5 42.5t36 69t12.5 93zM395 592q-9 -3 -17.5 -6t-17.5 -6q-23 26 -44.5 52.5t-43.5 52.5q-23 -26 -44.5 -52.5t-44.5 -52.5q-8 3 -16.5 5.5t-16.5 5.5q24 33 47.5 65.5t46.5 65.5q8 5 17 8.5t17 8.5z" />
    <glyph glyph-name="odieresis" unicode="&#xf6;" horiz-adv-x="548" 
d="M501 252q0 -53 -15 -100.5t-44 -83.5t-73 -57t-101 -21q-53 0 -94.5 18.5t-70 52.5t-43.5 81.5t-15 104.5q0 63 17.5 111.5t48.5 82t74 51t95 17.5q46 0 86.5 -15.5t70.5 -47t47 -80t17 -114.5zM450 251q0 106 -45.5 161t-129.5 55q-37 0 -69.5 -14t-56.5 -41.5t-38 -68
t-14 -94.5q0 -99 46.5 -158t131.5 -59q39 0 71 14.5t55.5 42.5t36 69t12.5 93zM396 633q0 -16 -11 -26.5t-27 -10.5q-14 0 -26 10t-12 27t12 26.5t26 9.5q15 0 26.5 -10t11.5 -26zM222 633q0 -16 -11 -26.5t-27 -10.5q-14 0 -26 10t-12 27t12 26.5t26 9.5q15 0 26 -10
t11 -26h1z" />
    <glyph glyph-name="otilde" unicode="&#xf5;" horiz-adv-x="548" 
d="M501 252q0 -53 -15 -100.5t-44 -83.5t-73 -57t-101 -21q-53 0 -94.5 18.5t-70 52.5t-43.5 81.5t-15 104.5q0 63 17.5 111.5t48.5 82t74 51t95 17.5q46 0 86.5 -15.5t70.5 -47t47 -80t17 -114.5zM450 251q0 106 -45.5 161t-129.5 55q-37 0 -69.5 -14t-56.5 -41.5t-38 -68
t-14 -94.5q0 -99 46.5 -158t131.5 -59q39 0 71 14.5t55.5 42.5t36 69t12.5 93zM436 686q-10 -40 -33.5 -65.5t-58.5 -25.5q-22 0 -39 9.5t-32 21.5t-29.5 21.5t-31.5 9.5q-41 0 -58 -61q-8 2 -15.5 5t-15.5 5q10 42 34 66t58 24q22 0 40 -9.5t33.5 -21t30 -21t29.5 -9.5
q17 0 32.5 15.5t24.5 45.5q8 -2 15.5 -5t15.5 -5z" />
    <glyph glyph-name="uacute" unicode="&#xfa;" horiz-adv-x="562" 
d="M419 0q0 6 0.5 21t1 31.5t1.5 31t2 19.5l-2 1q-23 -56 -68 -85t-105 -29q-45 0 -76 14t-50 39.5t-27.5 62t-8.5 80.5v313h50v-297q0 -83 26 -126.5t94 -43.5q37 0 67 15t51.5 41.5t33 64t11.5 82.5v264h50v-499h-51zM263 580l-36 12l112 145l44 -14z" />
    <glyph glyph-name="ugrave" unicode="&#xf9;" horiz-adv-x="562" 
d="M419 0q0 6 0.5 21t1 31.5t1.5 31t2 19.5l-2 1q-23 -56 -68 -85t-105 -29q-45 0 -76 14t-50 39.5t-27.5 62t-8.5 80.5v313h50v-297q0 -83 26 -126.5t94 -43.5q37 0 67 15t51.5 41.5t33 64t11.5 82.5v264h50v-499h-51zM304 580l-121 143l44 14l113 -145z" />
    <glyph glyph-name="ucircumflex" unicode="&#xfb;" horiz-adv-x="562" 
d="M419 0q0 6 0.5 21t1 31.5t1.5 31t2 19.5l-2 1q-23 -56 -68 -85t-105 -29q-45 0 -76 14t-50 39.5t-27.5 62t-8.5 80.5v313h50v-297q0 -83 26 -126.5t94 -43.5q37 0 67 15t51.5 41.5t33 64t11.5 82.5v264h50v-499h-51zM400 592q-9 -3 -17.5 -6t-17.5 -6q-23 26 -44.5 52.5
t-43.5 52.5q-23 -26 -44.5 -52.5t-44.5 -52.5q-8 3 -16.5 5.5t-16.5 5.5q24 33 47.5 65.5t46.5 65.5q8 5 17 8.5t17 8.5z" />
    <glyph glyph-name="udieresis" unicode="&#xfc;" horiz-adv-x="562" 
d="M419 0q0 6 0.5 21t1 31.5t1.5 31t2 19.5l-2 1q-23 -56 -68 -85t-105 -29q-45 0 -76 14t-50 39.5t-27.5 62t-8.5 80.5v313h50v-297q0 -83 26 -126.5t94 -43.5q37 0 67 15t51.5 41.5t33 64t11.5 82.5v264h50v-499h-51zM402 633q0 -16 -11 -26.5t-27 -10.5q-14 0 -26 10
t-12 27t12 26.5t26 9.5q15 0 26.5 -10t11.5 -26zM228 633q0 -16 -11 -26.5t-27 -10.5q-14 0 -26 10t-12 27t12 26.5t26 9.5q15 0 26 -10t11 -26h1z" />
    <glyph glyph-name="dagger" unicode="&#x2020;" horiz-adv-x="412" 
d="M226 530q2 -29 3.5 -58t3.5 -58q-2 -62 -4 -123.5t-4 -123.5h-39q-2 62 -4.5 123.5t-4.5 123.5q2 29 3.5 58t3.5 58h-137v42h137q-2 37 -3.5 74t-3.5 75h56q-2 -38 -3.5 -75t-3.5 -74h138v-42h-138z" />
    <glyph glyph-name="degree" unicode="&#xb0;" horiz-adv-x="373" 
d="M306 595q0 -26 -10 -48t-27 -38t-38.5 -25t-45.5 -9q-26 0 -47.5 9t-37.5 25t-24.5 37.5t-8.5 47.5t9.5 48t26 38t38.5 25t46 9q27 0 49 -9.5t37.5 -25.5t24 -38t8.5 -46zM262 594q0 32 -18.5 57t-57.5 25q-31 0 -53 -23t-22 -58q0 -36 21 -59.5t53 -23.5t54.5 23.5
t22.5 58.5z" />
    <glyph glyph-name="cent" unicode="&#xa2;" 
 />
    <glyph glyph-name="sterling" unicode="&#xa3;" 
d="M73 0v40q54 32 83.5 76t29.5 98q0 24 -1.5 49t-3.5 50h-114v43h110q-4 35 -6.5 69.5t-2.5 69.5q0 93 47.5 143.5t128.5 50.5q31 0 57.5 -5t47.5 -13q-2 -11 -4 -23t-4 -23q-19 8 -42 14.5t-49 6.5q-65 0 -98.5 -39.5t-33.5 -111.5q0 -35 3 -69.5t7 -69.5h160v-43h-157
q2 -23 3.5 -44t1.5 -42q0 -61 -23.5 -106t-74.5 -78h341v-43h-406z" />
    <glyph glyph-name="section" unicode="&#xa7;" horiz-adv-x="484" 
d="M396 287q0 -41 -19.5 -74t-58.5 -64q21 -21 31.5 -47.5t10.5 -52.5q0 -27 -10.5 -51.5t-30.5 -43t-48.5 -29.5t-65.5 -11q-22 0 -45 5t-43 13q2 12 2.5 24t1.5 24q26 -12 46 -18t42 -6q51 0 75.5 27t24.5 62q0 31 -16.5 55t-41.5 44q-35 28 -65.5 50.5t-53 45.5t-36 50.5
t-13.5 65.5q0 80 79 131q-25 24 -36.5 52.5t-11.5 53.5q0 27 9 52t28 44t47 30t66 11q18 0 40.5 -3.5t39.5 -10.5q-1 -12 -1.5 -23.5t-1.5 -23.5q-39 19 -80 19q-50 0 -73 -25.5t-23 -65.5q0 -22 10 -41t27.5 -37.5t42 -37t53.5 -38.5q45 -31 71.5 -71t26.5 -85zM345 285
q0 27 -12.5 50t-33.5 43.5t-48 40t-56 40.5q-61 -34 -61 -98q0 -29 12.5 -52.5t33.5 -45t48.5 -42t58.5 -42.5q32 25 45 50t13 56z" />
    <glyph glyph-name="bullet" unicode="&#x2022;" horiz-adv-x="375" 
d="M289 327q0 -22 -8 -41.5t-22 -34t-33 -23t-41 -8.5q-21 0 -40 8.5t-33.5 23t-22.5 34t-8 41.5t8 41.5t22.5 34t33.5 23t40 8.5q22 0 41 -8.5t33 -23t22 -34t8 -41.5z" />
    <glyph glyph-name="paragraph" unicode="&#xb6;" horiz-adv-x="505" 
 />
    <glyph glyph-name="germandbls" unicode="&#xdf;" horiz-adv-x="553" 
d="M506 169q0 -38 -13 -70.5t-38 -56.5t-60.5 -38t-81.5 -14q-23 0 -44.5 2.5t-38.5 6.5q1 22 3 48q20 -8 42 -11t41 -3q66 0 101 30t35 78q0 34 -16 65t-43 57t-62 48t-73 40q-6 12 -9.5 25t-3.5 29q16 22 41.5 42.5t49.5 44.5t41.5 53t17.5 67q0 42 -30.5 65t-81.5 23
q-66 0 -104 -41.5t-38 -132.5v-526h-50v528q0 56 15 96.5t41.5 66.5t62.5 38.5t78 12.5q39 0 69.5 -11.5t50.5 -31t30.5 -46.5t10.5 -58q0 -35 -11.5 -61t-30 -46.5t-41.5 -36t-45 -29.5q-14 -11 -14 -24q11 -17 30 -31.5t41 -29.5t45 -31.5t41.5 -36t30 -44.5t11.5 -56z
" />
    <glyph glyph-name="registered" unicode="&#xae;" horiz-adv-x="662" 
d="M602 424q0 -61 -21.5 -115t-58.5 -94t-86.5 -63t-105.5 -23q-57 0 -106.5 23t-86 62.5t-57.5 93t-21 115.5q0 61 21 115t58 94t86.5 63t105.5 23q57 0 106.5 -23t86.5 -62.5t58 -93.5t21 -115zM561 422q0 53 -18 100t-49.5 82.5t-73.5 56t-90 20.5t-89.5 -20t-73 -55
t-49.5 -82t-18 -100t18 -100t49.5 -82t73 -55.5t89.5 -20.5t90 20.5t73.5 55t49.5 81t18 99.5zM405 242q-10 23 -21 49.5t-23.5 50t-27 41t-32.5 23.5h-24v-164h-41v369h92q30 0 51.5 -8t35 -21t19.5 -30.5t6 -36.5q0 -44 -23 -70.5t-64 -33.5q2 -2 5.5 -6t7.5 -9
q10 -3 22 -21t24 -41.5t23 -48.5t19 -43h-49zM399 508q0 31 -16.5 50.5t-55.5 19.5h-50v-142h36q39 0 62.5 16t23.5 56z" />
    <glyph glyph-name="copyright" unicode="&#xa9;" horiz-adv-x="771" 
d="M727 345q0 -72 -27 -135.5t-73.5 -110.5t-108.5 -74t-133 -27q-73 0 -135.5 27t-108.5 73.5t-72.5 109.5t-26.5 135t27 135.5t73.5 110.5t108.5 74t133 27t133.5 -27t109 -73.5t73.5 -109.5t27 -135zM684 343q0 63 -23.5 119t-64 98t-95.5 66.5t-117 24.5t-116.5 -24
t-95 -65.5t-64 -97.5t-23.5 -120q0 -63 23.5 -119t64 -98t95 -66t116.5 -24t117 24t95.5 65.5t64 97.5t23.5 119zM498 150q-19 -8 -46 -17t-61 -9q-47 0 -82.5 16t-59.5 44t-36.5 66t-12.5 83q0 52 13.5 94t39.5 72t64 46t87 16q26 0 50.5 -6.5t40.5 -13.5l-2 -43
q-18 10 -43.5 16.5t-52.5 6.5q-69 0 -109 -47t-40 -133q0 -85 41.5 -130.5t107.5 -45.5q29 0 54 7.5t45 17.5z" />
    <glyph glyph-name="trademark" unicode="&#x2122;" horiz-adv-x="736" 
d="M611 384l-20 248h-1l-88 -248h-45l-84 248h-1l-19 -248h-42l25 305h61l85 -253l89 253h59l24 -305h-43zM184 653v-269h-44v269h-92v36h228v-36h-92z" />
    <glyph glyph-name="acute" unicode="&#xb4;" horiz-adv-x="327" 
d="M125 580l-36 12l112 145l44 -14z" />
    <glyph glyph-name="dieresis" unicode="&#xa8;" horiz-adv-x="484" 
d="M362 633q0 -16 -11 -26.5t-27 -10.5q-14 0 -26 10t-12 27t12 26.5t26 9.5q15 0 26.5 -10t11.5 -26zM188 633q0 -16 -11 -26.5t-27 -10.5q-14 0 -26 10t-12 27t12 26.5t26 9.5q15 0 26 -10t11 -26h1z" />
    <glyph glyph-name="notequal" unicode="&#x2260;" horiz-adv-x="452" 
d="M398 285q-72 -38 -166 -62q-14 -19 -28 -36l-28 -34h-26q-1 8 -1.5 16t-0.5 17q0 22 3 51q-25 4 -49 7.5t-48 8.5q-3 12 -5 24.5t-2 26.5h100q6 11 13 22t13 22h-126v20q34 21 75.5 33t89.5 30q14 20 28.5 38t28.5 35h27v-28v-28.5t-2 -31.5q25 -4 49.5 -7.5t48.5 -8.5
q6 -24 6 -52h-101l-12 -22t-13 -22h126v-19v0z" />
    <glyph glyph-name="AE" unicode="&#xc6;" horiz-adv-x="800" 
d="M382 0v200h-245q-26 -51 -52.5 -100t-52.5 -100h-56q94 173 188 344t189 345h353v-45h-272v-272h258v-44h-258v-284h286v-44h-338zM382 643h-7q-17 -35 -42.5 -83t-54.5 -101.5t-59.5 -109t-57.5 -105.5h221v399z" />
    <glyph glyph-name="Oslash" unicode="&#xd8;" horiz-adv-x="729" 
d="M678 352q0 -90 -24.5 -157.5t-67.5 -113t-102 -68.5t-127 -23q-45 0 -82.5 14t-66.5 39l-58 -102l-38 22l60 105q-63 44 -92 114.5t-29 156.5q0 82 23.5 148.5t66 113.5t101.5 73t131 26q38 0 71.5 -10.5t62.5 -30.5l50 88l38 -22l-51 -88q65 -42 99.5 -114.5
t34.5 -170.5zM623 343q0 86 -26 150t-77 102l-289 -511q55 -49 129 -49q57 0 105.5 20t83.5 59t54.5 96.5t19.5 132.5zM484 618q-49 37 -118 37q-54 0 -101.5 -21t-82.5 -61t-55.5 -97.5t-20.5 -130.5q0 -75 21 -135.5t69 -99.5z" />
    <glyph glyph-name="infinity" unicode="&#x221e;" horiz-adv-x="693" 
 />
    <glyph glyph-name="plusminus" unicode="&#xb1;" horiz-adv-x="592" 
d="M319 316v-205h-46v205h-204v42h204v204h46v-204h204v-42h-204zM69 0v43h454v-43h-454z" />
    <glyph glyph-name="lessequal" unicode="&#x2264;" horiz-adv-x="452" 
 />
    <glyph glyph-name="greaterequal" unicode="&#x2265;" horiz-adv-x="452" 
 />
    <glyph glyph-name="yen" unicode="&#xa5;" 
d="M305 326h164v-41h-177v-104h177v-41h-177v-140h-51v140h-177v41h177v104h-177v41h164l-186 353h56l170 -341h1q4 9 11.5 24t25.5 50.5t50 98.5t86 168h52z" />
    <glyph glyph-name="mu" unicode="&#xb5;" horiz-adv-x="591" 
d="M539 28q-11 -13 -30.5 -22t-46.5 -9q-21 11 -29 29.5t-8 41.5q0 15 3 32h-1q-23 -57 -67 -82.5t-98 -25.5q-82 0 -122 48h-2q2 -64 2.5 -122.5t1.5 -123.5l-51 -10v714h50v-293q0 -39 6 -70.5t21 -54t39.5 -34.5t62.5 -12q69 0 111.5 51t42.5 138v275h50v-328
q0 -36 4 -62t15 -32q8 -4 13.5 -5.5t17.5 3.5q3 -8 4.5 -13t3 -9.5t3.5 -10t4 -13.5z" />
    <glyph glyph-name="partialdiff" unicode="&#x2202;" horiz-adv-x="504" 
 />
    <glyph glyph-name="summation" unicode="&#x2211;" horiz-adv-x="487" 
d="M382 29q-83 0 -164.5 3t-162.5 10q-7 15 -11 31q43 57 87.5 114.5t92.5 117.5q-45 58 -86.5 114t-81.5 112q5 19 11 32q75 6 151.5 9.5t154.5 3.5v-19h-237q65 -46 122.5 -111.5t102.5 -139.5q-48 -76 -109 -142.5t-129 -114.5h259v-20v0z" />
    <glyph glyph-name="product" unicode="&#x220f;" horiz-adv-x="587" 
d="M490 557q-13 0 -25.5 -1t-25.5 -3q15 -106 24.5 -221t9.5 -236h-31q0 78 -7.5 160t-19.5 173q-56 -4 -112 -5.5t-113 -1.5v-393q-34 0 -61 13q-10 108 -15.5 219.5t-5.5 226.5h-66q0 19 4 36.5t11 31.5q107 9 214.5 14.5t218.5 5.5v-19v0z" />
    <glyph glyph-name="pi" unicode="&#x3c0;" horiz-adv-x="524" 
d="M470 202q-11 -17 -33 -31.5t-45 -14.5q-27 0 -36 11t-13 35q-5 29 -12 59.5t-14 64.5h-129q-6 -48 -11.5 -93.5t-10.5 -90.5q-11 2 -20.5 3.5t-19.5 3.5q-8 57 -13.5 118t-5.5 125h-69q0 32 10 60q91 12 183 19.5t187 7.5v-18h-71q17 -27 29.5 -67t17.5 -87
q0 -25 1.5 -41t6 -26t12 -15t20.5 -8q8 0 17 1t17 3q0 -5 1 -9.5t1 -9.5z" />
    <glyph glyph-name="integral" unicode="&#x222b;" horiz-adv-x="326" 
d="M248 555q-2 2 -9 2q-20 0 -29 -13t-9 -49q0 -30 3.5 -58.5l7 -57t7 -59.5t3.5 -65q0 -123 -30 -176.5t-100 -53.5q-20 0 -27.5 5t-16.5 22q2 0 7 1t10 5q19 3 26.5 18.5t7.5 56.5q0 42 -4.5 84.5t-4.5 93.5q0 68 5 118.5t19.5 83.5t39.5 49t65 16q8 0 15.5 -0.5
t13.5 -1.5v-21v0z" />
    <glyph glyph-name="ordfeminine" unicode="&#xaa;" horiz-adv-x="370" 
 />
    <glyph glyph-name="ordmasculine" unicode="&#xba;" horiz-adv-x="406" 
 />
    <glyph glyph-name="Omega" unicode="&#x2126;" horiz-adv-x="567" 
d="M503 201q-30 -28 -75 -47t-96 -19v20q41 20 64.5 49.5t23.5 75.5q-4 27 -18 52t-37 43.5t-56.5 30t-76.5 11.5q-67 0 -103 -28t-36 -73q0 -34 20 -55.5t66 -38.5v-21h-124v18h93q-51 23 -69.5 57.5t-18.5 79.5q0 44 16.5 81t46.5 63.5t71 41.5t90 15q46 0 85 -13
t67.5 -38t45 -60t18.5 -79q0 -50 -25 -87.5t-66 -60.5h94v-18v0z" />
    <glyph glyph-name="ae" unicode="&#xe6;" horiz-adv-x="824" 
d="M774 284v-11t-1 -14h-354v-13q0 -106 46 -159.5t131 -53.5q42 0 79.5 12.5t70.5 35.5q2 -12 3.5 -24t3.5 -23q-33 -19 -74.5 -31.5t-92.5 -12.5q-81 0 -128 36t-66 93h-2q-11 -25 -28.5 -48t-41.5 -41t-55 -29t-68 -11q-34 0 -60.5 10.5t-45 28.5t-28.5 42.5t-10 52.5
q0 43 18.5 73.5t57 50t98.5 29t143 11.5q0 46 -5.5 80t-19 55.5t-36.5 32t-59 10.5q-44 0 -83.5 -15t-71.5 -39q-2 13 -4 25.5t-4 24.5q34 20 76.5 33.5t93.5 13.5q31 0 56 -9t44 -24t31 -35t18 -41h1q25 51 70.5 80t105.5 29q52 0 88 -18.5t59 -49.5t33.5 -72t10.5 -85z
M720 301q0 79 -37 123t-102 44q-33 0 -60 -12.5t-47.5 -34.5t-33 -53t-17.5 -67h297zM370 246q-31 -1 -59.5 -2t-54.5 -3q-45 -3 -74.5 -14t-46.5 -26t-23.5 -33.5t-6.5 -37.5q0 -43 26.5 -70.5t74.5 -27.5q35 0 65 15t52 41.5t34.5 61.5t12.5 75v21z" />
    <glyph glyph-name="oslash" unicode="&#xf8;" horiz-adv-x="548" 
d="M501 251q0 -53 -15 -100.5t-44.5 -83t-72.5 -56.5t-100 -21q-64 0 -109 36q-14 -23 -28.5 -47.5t-28.5 -48.5q-17 11 -37 23q15 25 29.5 49t29.5 49q-43 34 -61.5 85.5t-18.5 110.5q0 63 17 111.5t48 82t74.5 51t95.5 17.5q55 0 96 -35q14 23 28 46.5t28 46.5
q9 -5 18.5 -10.5t19.5 -11.5q-15 -23 -29.5 -47t-28.5 -48q39 -29 64 -77.5t25 -121.5zM450 251q0 111 -61 160q-52 -88 -103.5 -174t-102.5 -174q38 -32 92 -32q39 0 71 15t55.5 43t36 69t12.5 93zM354 437q-37 29 -85 29q-36 0 -67.5 -13t-55 -40t-37 -68t-13.5 -97
q0 -48 14.5 -89t38.5 -68q51 87 102.5 173t102.5 173z" />
    <glyph glyph-name="questiondown" unicode="&#xbf;" horiz-adv-x="436" 
d="M293 467q0 -17 -12 -29t-29 -12q-18 0 -30 12t-12 29t12 29t30 12q17 0 29 -12t12 -29zM358 -126q-2 -12 -2.5 -25t-1.5 -26q-27 -6 -57 -11.5t-60 -5.5q-44 0 -76 13t-53.5 35t-32 50.5t-10.5 59.5q0 32 10.5 58t27.5 49t38.5 44.5t44.5 45.5q26 28 36.5 54t10.5 65
q0 20 -6 44h49q6 -24 6 -44q0 -39 -12 -68t-30 -53t-39.5 -44.5t-39.5 -42.5t-30 -46.5t-12 -56.5q0 -52 31.5 -83.5t94.5 -31.5q28 0 56.5 6t56.5 14z" />
    <glyph glyph-name="exclamdown" unicode="&#xa1;" horiz-adv-x="294" 
d="M183 467q0 -17 -12 -28.5t-30 -11.5q-17 0 -29 11.5t-12 28.5t12 29.5t29 12.5q18 0 30 -12.5t12 -29.5zM112 -200l9 522h42l8 -522h-59z" />
    <glyph glyph-name="logicalnot" unicode="&#xac;" horiz-adv-x="592" 
d="M461 88v185h-392v42h436v-227h-44z" />
    <glyph glyph-name="radical" unicode="&#x221a;" horiz-adv-x="481" 
d="M434 520q-35 -109 -83 -207t-103 -178h-35q-44 48 -82 114.5t-62 142.5h-55v18q20 11 42 21.5t47 18.5q29 -35 62.5 -75t65.5 -85h1q51 72 95 127t75 103h32v0z" />
    <glyph glyph-name="florin" unicode="&#x192;" 
d="M479 649q-17 5 -34.5 7.5t-32.5 2.5q-48 0 -75 -26.5t-35 -86.5l-17 -142h127v-41h-132l-35 -315q-10 -92 -51 -143t-118 -51q-14 0 -32 2.5t-35 7.5l7 42q16 -5 34.5 -7.5t32.5 -2.5q51 0 77 37t34 109l36 321h-89v41h94l17 139q10 85 54 121t111 36q36 0 69 -9l-7 -42
v0z" />
    <glyph glyph-name="approxequal" unicode="&#x2248;" horiz-adv-x="452" 
 />
    <glyph glyph-name="Delta" unicode="&#x2206;" horiz-adv-x="544" 
 />
    <glyph glyph-name="guillemotleft" unicode="&#xab;" horiz-adv-x="477" 
d="M356 111l-130 164l130 168l45 -10l-120 -157l120 -154zM189 111l-126 164l126 168l45 -10l-115 -157l115 -154z" />
    <glyph glyph-name="guillemotright" unicode="&#xbb;" horiz-adv-x="477" 
d="M287 111l-45 11l116 157l-115 154l46 10l125 -164zM120 111l-45 11l121 157l-120 154l45 10l130 -164z" />
    <glyph glyph-name="ellipsis" unicode="&#x2026;" horiz-adv-x="632" 
d="M562 34q0 -17 -12.5 -29.5t-29.5 -12.5t-29 12.5t-12 29.5t12 28.5t29 11.5t29.5 -11.5t12.5 -28.5zM353 34q0 -17 -12.5 -29.5t-29.5 -12.5t-29 12.5t-12 29.5t12 28.5t29 11.5t29.5 -11.5t12.5 -28.5zM145 34q0 -17 -12 -29.5t-30 -12.5q-17 0 -29 12.5t-12 29.5
t12 28.5t29 11.5q18 0 30 -11.5t12 -28.5z" />
    <glyph glyph-name="nonbreakingspace" unicode="&#xa0;" horiz-adv-x="242" 
 />
    <glyph glyph-name="Agrave" unicode="&#xc0;" horiz-adv-x="598" 
 />
    <glyph glyph-name="Atilde" unicode="&#xc3;" horiz-adv-x="598" 
 />
    <glyph glyph-name="Otilde" unicode="&#xd5;" horiz-adv-x="729" 
 />
    <glyph glyph-name="OE" unicode="&#x152;" horiz-adv-x="899" 
d="M485 0q-29 -5 -58.5 -7.5t-63.5 -2.5q-81 0 -140 28t-97.5 76t-56.5 111t-18 133q0 82 23.5 149t66.5 114t103 73t132 26q34 0 60.5 -3t50.5 -8h326v-43h-276v-273h260v-44h-260v-285h283v-44h-335zM485 642q-27 6 -52.5 9.5t-61.5 3.5q-59 0 -107.5 -22.5t-83.5 -63.5
t-54.5 -98t-19.5 -125q0 -64 15.5 -120.5t47.5 -99t81 -67t117 -24.5q33 0 61 3t57 10v594z" />
    <glyph glyph-name="oe" unicode="&#x153;" horiz-adv-x="900" 
d="M854 259h-354v-13q0 -107 46 -160t131 -53q42 0 79.5 12.5t70.5 35.5q2 -12 3.5 -24t3.5 -23q-33 -19 -74.5 -31.5t-92.5 -12.5q-77 0 -125 34.5t-71 99.5h-1q-12 -29 -30 -53t-43 -42t-57 -28.5t-72 -10.5q-54 0 -95.5 19t-70 53t-43 81.5t-14.5 103.5q0 61 16.5 109.5
t47.5 82.5t74.5 52t96.5 18q66 0 118.5 -33t77.5 -99h1q25 58 71 95t117 37q51 0 87 -18.5t58.5 -49.5t33 -72t10.5 -85v-25zM801 301q-1 79 -38 123t-102 44q-33 0 -60 -12.5t-47.5 -34.5t-33 -53t-17.5 -67h298zM448 251q1 106 -44 161t-129 55q-37 0 -69.5 -14t-57 -41.5
t-38.5 -68.5t-14 -95q0 -99 47 -158t132 -59q39 0 71 15t55 43t35.5 69t11.5 93z" />
    <glyph glyph-name="endash" unicode="&#x2013;" horiz-adv-x="529" 
d="M17 273v44h495v-44h-495z" />
    <glyph glyph-name="emdash" unicode="&#x2014;" horiz-adv-x="1000" 
d="M89 273v44h822v-44h-822z" />
    <glyph glyph-name="quotedblleft" unicode="&#x201c;" horiz-adv-x="338" 
d="M304 709q-32 -53 -42 -99t-10 -85v-3q0 -8 -10.5 -14.5t-26.5 -6.5q-5 11 -8.5 25.5t-3.5 31.5q0 32 15 73t56 87zM159 709q-32 -53 -41.5 -99t-9.5 -85v-3q0 -8 -11 -14.5t-27 -6.5q-5 11 -8.5 25.5t-3.5 31.5q0 32 15 73t56 87z" />
    <glyph glyph-name="quotedblright" unicode="&#x201d;" horiz-adv-x="338" 
d="M266 716q5 -11 8.5 -25.5t3.5 -31.5q0 -32 -15.5 -73t-56.5 -87q-7 2 -14.5 4.5t-15.5 4.5q29 42 38 79.5t9 69.5q0 6 -0.5 12.5t-0.5 12.5q0 19 10.5 26.5t33.5 7.5zM121 716q5 -11 8.5 -25.5t3.5 -31.5q0 -32 -15.5 -73t-56.5 -87q-7 2 -14.5 4.5t-14.5 4.5
q29 45 38.5 85t9.5 72q0 7 -1.5 12.5t-1.5 11.5q0 14 13 20.5t31 6.5z" />
    <glyph glyph-name="quoteleft" unicode="&#x2018;" horiz-adv-x="193" 
d="M159 709q-32 -53 -41.5 -99t-9.5 -85v-3q0 -8 -11 -14.5t-27 -6.5q-5 11 -8.5 25.5t-3.5 31.5q0 32 15 73t56 87l30 -9v0z" />
    <glyph glyph-name="quoteright" unicode="&#x2019;" horiz-adv-x="193" 
d="M121 716q5 -11 8.5 -25.5t3.5 -31.5q0 -32 -15.5 -73t-56.5 -87q-7 2 -14.5 4.5t-14.5 4.5q29 45 38.5 85t9.5 72q0 7 -1.5 12.5t-1.5 11.5q0 14 13 20.5t31 6.5z" />
    <glyph glyph-name="divide" unicode="&#xf7;" horiz-adv-x="592" 
d="M336 477q0 -17 -12 -29t-29 -12t-29 12t-12 29t12 28t29 11t29 -11t12 -28zM69 273v42h454v-42h-454zM336 111q0 -17 -12 -28.5t-29 -11.5t-29 11.5t-12 28.5t12 28.5t29 11.5t29 -11.5t12 -28.5z" />
    <glyph glyph-name="lozenge" unicode="&#x25ca;" horiz-adv-x="488" 
 />
    <glyph glyph-name="ydieresis" unicode="&#xff;" horiz-adv-x="456" 
d="M222 -82q-19 -47 -39 -78.5t-42.5 -50.5t-49 -27t-58.5 -8q-11 0 -23.5 2.5t-20.5 4.5l4 47q9 -3 23 -5t26 -2q39 0 69 24t58 86l34 91l-191 497h57l133 -372q9 -22 15 -37.5t11 -30.5h2q5 12 14 34.5t20 47.5l127 358h54zM352 633q0 -16 -11 -26.5t-27 -10.5
q-14 0 -26 10t-12 27t12 26.5t26 9.5q15 0 26.5 -10t11.5 -26zM178 633q0 -16 -11 -26.5t-27 -10.5q-14 0 -26 10t-12 27t12 26.5t26 9.5q15 0 26 -10t11 -26h1z" />
    <glyph glyph-name="Ydieresis" unicode="&#x178;" horiz-adv-x="524" 
 />
    <glyph glyph-name="fraction" unicode="&#x2044;" horiz-adv-x="284" 
d="M-47 -8l-42 11l448 695l41 -11z" />
    <glyph glyph-name="guilsinglleft" unicode="&#x2039;" horiz-adv-x="312" 
d="M192 111l-129 164l130 168l43 -11l-118 -156l118 -153z" />
    <glyph glyph-name="guilsinglright" unicode="&#x203a;" horiz-adv-x="312" 
d="M120 111l-44 11l119 157l-118 153l45 11l127 -164z" />
    <glyph glyph-name="fi" unicode="&#xfb01;" horiz-adv-x="541" 
 />
    <glyph glyph-name="fl" unicode="&#xfb02;" horiz-adv-x="541" 
 />
    <glyph glyph-name="daggerdbl" unicode="&#x2021;" horiz-adv-x="412" 
d="M226 294q2 -38 3.5 -76t3.5 -76h-56q2 38 3.5 76t3.5 76h-137v41h137q-2 22 -3.5 44t-3.5 44q2 27 3.5 53.5t3.5 53.5h-137v42h137q-2 37 -3.5 74t-3.5 75h56q-2 -38 -3.5 -75t-3.5 -74h138v-42h-138q2 -27 3.5 -53.5t3.5 -53.5q-2 -22 -3.5 -44t-3.5 -44h138v-41h-138z
" />
    <glyph glyph-name="periodcentered" unicode="&#xb7;" horiz-adv-x="209" 
d="M148 325q0 -18 -12.5 -30.5t-30.5 -12.5q-19 0 -31.5 12.5t-12.5 30.5t12.5 30t30.5 12q19 0 31.5 -12t12.5 -30z" />
    <glyph glyph-name="quotesinglbase" unicode="&#x201a;" horiz-adv-x="193" 
d="M121 95q5 -11 8.5 -25.5t3.5 -31.5q0 -32 -15.5 -72.5t-56.5 -85.5q-7 2 -14.5 4.5t-14.5 4.5q29 45 38.5 84t9.5 71q0 7 -1.5 12.5t-1.5 11.5q0 14 12.5 20.5t31.5 6.5z" />
    <glyph glyph-name="quotedblbase" unicode="&#x201e;" horiz-adv-x="338" 
d="M266 95q5 -11 8.5 -25.5t3.5 -31.5q0 -32 -15.5 -73t-56.5 -87q-7 2 -14.5 5t-15.5 5q29 42 38 79t9 69q0 6 -0.5 12.5t-0.5 12.5q0 34 44 34zM121 95q5 -11 8.5 -25.5t3.5 -31.5q0 -32 -15.5 -73t-56.5 -87q-7 2 -14.5 5t-14.5 5q29 45 38.5 84.5t9.5 71.5
q0 7 -1.5 12.5t-1.5 11.5q0 14 12.5 20.5t31.5 6.5z" />
    <glyph glyph-name="Acircumflex" unicode="&#xc2;" horiz-adv-x="598" 
 />
    <glyph glyph-name="Ecircumflex" unicode="&#xca;" horiz-adv-x="506" 
 />
    <glyph glyph-name="Aacute" unicode="&#xc1;" horiz-adv-x="598" 
 />
    <glyph glyph-name="Edieresis" unicode="&#xcb;" horiz-adv-x="506" 
 />
    <glyph glyph-name="Egrave" unicode="&#xc8;" horiz-adv-x="506" 
 />
    <glyph glyph-name="Iacute" unicode="&#xcd;" horiz-adv-x="243" 
 />
    <glyph glyph-name="Icircumflex" unicode="&#xce;" horiz-adv-x="243" 
 />
    <glyph glyph-name="Idieresis" unicode="&#xcf;" horiz-adv-x="243" 
 />
    <glyph glyph-name="Igrave" unicode="&#xcc;" horiz-adv-x="243" 
 />
    <glyph glyph-name="Oacute" unicode="&#xd3;" horiz-adv-x="729" 
 />
    <glyph glyph-name="Ocircumflex" unicode="&#xd4;" horiz-adv-x="729" 
 />
    <glyph glyph-name="apple" horiz-adv-x="735" 
 />
    <glyph glyph-name="Ograve" unicode="&#xd2;" horiz-adv-x="729" 
 />
    <glyph glyph-name="Uacute" unicode="&#xda;" horiz-adv-x="680" 
 />
    <glyph glyph-name="Ucircumflex" unicode="&#xdb;" horiz-adv-x="680" 
 />
    <glyph glyph-name="Ugrave" unicode="&#xd9;" horiz-adv-x="680" 
 />
    <glyph glyph-name="dotlessi" unicode="&#x131;" horiz-adv-x="233" 
d="M92 0v499h49v-499h-49z" />
    <glyph glyph-name="circumflex" unicode="&#x2c6;" horiz-adv-x="412" 
d="M324 592q-9 -3 -17.5 -6t-17.5 -6q-23 26 -44.5 52.5t-43.5 52.5q-23 -26 -44.5 -52.5t-44.5 -52.5q-8 3 -16.5 5.5t-16.5 5.5q24 33 47.5 65.5t46.5 65.5q8 5 17 8.5t17 8.5l117 -147v0z" />
    <glyph glyph-name="tilde" unicode="&#x2dc;" horiz-adv-x="437" 
d="M377 686q-10 -40 -33.5 -65.5t-58.5 -25.5q-22 0 -39 9.5t-32 21.5t-29.5 21.5t-31.5 9.5q-41 0 -58 -61q-8 2 -15.5 5t-15.5 5q10 42 34 66t58 24q22 0 40 -9.5t33.5 -21t30 -21t29.5 -9.5q17 0 32.5 15.5t24.5 45.5q8 -2 15.5 -5t15.5 -5z" />
    <glyph glyph-name="macron" unicode="&#xaf;" horiz-adv-x="359" 
d="M59 602v42h240v-42h-240z" />
    <glyph glyph-name="breve" unicode="&#x2d8;" horiz-adv-x="373" 
d="M307 702q-4 -52 -35 -83.5t-87 -31.5q-58 0 -87.5 32.5t-31.5 82.5h40q2 -35 23.5 -55.5t56.5 -20.5q33 0 55 20.5t24 55.5h42v0z" />
    <glyph glyph-name="dotaccent" unicode="&#x2d9;" horiz-adv-x="237" 
d="M158 634q0 -16 -11.5 -27t-27.5 -11q-15 0 -27.5 10t-12.5 28t12.5 28t26.5 10q16 0 28 -10.5t12 -27.5z" />
    <glyph glyph-name="ring" unicode="&#x2da;" horiz-adv-x="354" 
d="M276 664q0 -20 -7.5 -37t-21 -29.5t-31.5 -20t-39 -7.5q-42 0 -70.5 25.5t-28.5 68.5q0 41 29 67t70 26q42 0 70.5 -26t28.5 -67zM237 664q0 26 -17 42t-43 16t-43 -16.5t-17 -41.5q0 -26 17 -42t43 -16t43 16t17 42z" />
    <glyph glyph-name="cedilla" unicode="&#xb8;" horiz-adv-x="316" 
d="M185 -50q26 -11 43.5 -28t17.5 -47q0 -24 -5.5 -38t-17.5 -23.5t-30.5 -16.5t-43.5 -17q-8 5 -14.5 10t-14.5 10l35 14t24.5 12.5t14 16t4.5 23.5q0 16 -9 25.5t-23 15.5q-3 0 -6 -0.5t-7 -0.5q-5 33 -12 66q8 2 15 3t14 3q4 -8 7.5 -14.5t7.5 -13.5z" />
    <glyph glyph-name="hungarumlaut" unicode="&#x2dd;" horiz-adv-x="409" 
d="M236 580l-33 12l110 141l45 -14zM100 580l-33 12l105 143l46 -15z" />
    <glyph glyph-name="ogonek" unicode="&#x2db;" horiz-adv-x="227" 
d="M172 0q-50 -35 -69 -65t-19 -52q0 -20 10 -30t25 -10q13 0 24.5 5t20.5 12l16 -29q-12 -12 -32 -20t-42 -8q-32 0 -53 18.5t-21 53.5q0 25 19.5 59t65.5 66h55v0z" />
    <glyph glyph-name="caron" unicode="&#x2c7;" horiz-adv-x="412" 
d="M326 727q-30 -37 -59.5 -74t-59.5 -74q-8 5 -16 9t-17 8q-23 33 -46.5 65.5t-46.5 64.5l18 6t17 6q23 -26 44.5 -52.5t43.5 -52.5q23 26 44.5 52.5t44.5 52.5q8 -3 16.5 -5.5t16.5 -5.5z" />
    <glyph glyph-name="Eth" unicode="&#xd0;" horiz-adv-x="696" 
d="M641 352q0 -81 -26.5 -146.5t-75.5 -111t-118.5 -70.5t-154.5 -25h-37t-47 0.5t-44.5 0.5h-29.5v327h-95v43h95v319q11 0 35.5 0.5t52.5 0.5t53.5 0.5t39.5 0.5q167 0 259.5 -83.5t92.5 -255.5zM588 350q0 145 -76 221t-231 76h-26.5t-36.5 -0.5t-35.5 -0.5h-22.5v-276
h175v-43h-175v-282q1 0 16 -0.5t33 -1t35.5 -0.5h23.5q71 0 130 18t101 55.5t65.5 95.5t23.5 138z" />
    <glyph glyph-name="g" unicode="g" horiz-adv-x="559" 
d="M479 37q0 -63 -12.5 -113.5t-42 -85.5t-77.5 -54t-120 -19q-42 0 -81 11.5t-68 26.5v47q36 -20 76.5 -32t73.5 -12q48 0 86 11.5t65 37.5t41 68t14 102v65h-2q-29 -51 -75.5 -76.5t-103.5 -25.5q-42 0 -80 15.5t-66.5 46.5t-45.5 78.5t-17 112.5q0 59 16 108.5t46 85.5
t72 56.5t95 20.5q63 0 100.5 -26t58.5 -65h2v79h45v-463zM434 308q0 30 -10.5 59t-30.5 52.5t-50 37.5t-69 14q-43 0 -77 -16.5t-57.5 -46.5t-36 -71.5t-12.5 -91.5q0 -57 13.5 -97.5t36.5 -67t53.5 -39t64.5 -12.5q44 0 77 15.5t54.5 40.5t32.5 57.5t11 66.5v99z" />
    <glyph glyph-name="dollar" unicode="$" horiz-adv-x="515" 
d="M436 174q0 -27 -8 -55t-26.5 -52t-49 -41.5t-75.5 -23.5v-89l-38 -10v97q-45 0 -88 11t-72 28v50q32 -22 75 -35t85 -13v292q-40 24 -70 44t-50 42t-30 46.5t-10 57.5q0 31 10.5 60t30.5 53t50 40.5t69 22.5v74l38 10v-83q18 0 37.5 -2t37 -5t31.5 -7t21 -7v-50
q-27 16 -61 22.5t-66 6.5v-296q39 -22 69 -42.5t50 -42t30 -47t10 -56.5zM239 657q-57 -9 -85 -44.5t-28 -83.5q0 -27 7.5 -47t22 -36.5t35.5 -31t48 -30.5v273zM389 165q0 26 -7 45.5t-21 36t-35 31.5t-49 32v-268q60 11 86 45.5t26 77.5z" />
    <glyph glyph-name="Q" unicode="Q" horiz-adv-x="761" 
d="M708 361q0 -76 -18.5 -140.5t-54 -112.5t-88 -78.5t-120.5 -38.5l161 -163h-68l-148 160q-78 1 -137.5 29t-100 76t-61 112.5t-20.5 137.5q0 79 21.5 146.5t64.5 117t106 77.5t146 28q73 0 131.5 -26t99.5 -72.5t63.5 -111t22.5 -141.5zM658 353q0 78 -20 137t-56.5 98.5
t-87 59.5t-111.5 20q-60 0 -111.5 -22.5t-89 -64t-58.5 -101t-21 -132.5t19.5 -131.5t55.5 -99.5t86.5 -63t112.5 -22t113.5 20.5t89 60.5t58 100t20.5 140z" />
    <glyph glyph-name="b" unicode="b" horiz-adv-x="561" 
d="M517 268q0 -60 -15.5 -111.5t-44.5 -89t-70.5 -58.5t-93.5 -21q-34 0 -61 9.5t-47.5 24t-34.5 32.5t-23 35h-2v-89h-45v740l45 -10v-330h2q23 50 72.5 81t114.5 31q49 0 86.5 -17.5t63.5 -49t39.5 -77t13.5 -100.5zM470 267q0 49 -12 87t-33.5 64t-51 39.5t-65.5 13.5
q-53 0 -88 -20t-56 -49.5t-30 -64t-9 -62.5v-63q0 -32 10.5 -65t32 -59t53.5 -42.5t76 -16.5q39 0 71 17.5t54.5 49t35 75t12.5 96.5z" />
    <glyph glyph-name="q" unicode="q" horiz-adv-x="562" 
d="M437 -219v321h-2q-11 -23 -27.5 -43.5t-39 -36.5t-51.5 -25t-65 -9q-51 0 -89.5 19.5t-65 53t-40 79t-13.5 97.5q0 63 17 114t47.5 86.5t73 55t92.5 19.5q34 0 60 -8.5t45.5 -22.5t33 -31.5t22.5 -34.5h2v85h45v-729zM437 292q0 32 -9.5 64t-30 57.5t-52 41.5t-74.5 16
q-41 0 -74 -16.5t-56.5 -46.5t-36.5 -73t-13 -96q0 -43 10.5 -81t31.5 -66.5t51.5 -45.5t70.5 -17q52 0 87 20t56 49t30 63t9 63v68z" />
    <glyph glyph-name="p" unicode="p" horiz-adv-x="560" 
d="M516 268q0 -60 -16 -111.5t-45 -89t-70.5 -58.5t-93.5 -21q-34 0 -60.5 9.5t-47 24t-34 32.5t-22.5 35h-2v-308l-45 -10v729h45v-103h2q24 51 73 83t114 32q49 0 86.5 -17.5t63 -49t39 -77t13.5 -100.5zM471 267q0 49 -12 87t-34 64t-51.5 39.5t-65.5 13.5q-53 0 -88 -20
t-56 -49.5t-30 -64t-9 -62.5v-63q0 -32 10.5 -65t32 -59t53.5 -42.5t76 -16.5q39 0 71 17.5t55 49t35.5 75t12.5 96.5z" />
    <glyph glyph-name="perthousand" unicode="&#x2030;" horiz-adv-x="284" 
d="M-47 -8l-42 11l448 695l41 -11z" />
    <glyph glyph-name="eth" unicode="&#xf0;" horiz-adv-x="548" 
d="M500 256q0 -60 -16 -109t-46 -84t-72.5 -54t-96.5 -19q-53 0 -95 18.5t-70.5 52.5t-43.5 81.5t-15 104.5q0 63 17 111.5t48 82t74.5 51t95.5 17.5q42 0 77 -15t52 -38l1 1q-23 44 -49 78.5t-63 73.5q-32 -17 -62.5 -32t-62.5 -31l-12 18t-12 19q30 14 59 28.5l59 29.5
q-22 20 -48.5 43.5t-53.5 43.5q17 2 32.5 5t31.5 5q20 -14 41.5 -33.5t43.5 -41.5q33 16 65 32t65 32q12 -20 23 -37q-31 -15 -61 -30t-61 -30q75 -85 115 -182t40 -192zM449 254q0 104 -44.5 158.5t-128.5 54.5q-37 0 -70 -14t-57.5 -41.5t-38.5 -68.5t-14 -95
q0 -99 47.5 -158t132.5 -59q78 0 125.5 57.5t47.5 165.5z" />
    <glyph glyph-name="Lslash" unicode="&#x141;" horiz-adv-x="462" 
d="M116 0v288l-88 -36l-8 43l96 39v355h51v-330l152 83l8 -44l-160 -85v-269h271v-44h-322z" />
    <glyph glyph-name="uni0025" unicode="%" horiz-adv-x="743" 
d="M694 151q0 -69 -38 -114t-107 -45q-72 0 -103.5 39t-31.5 111q0 33 10 62t28.5 50.5t45.5 33.5t61 12q72 0 103.5 -38.5t31.5 -110.5zM145 -19l-43 29l494 657l43 -29zM328 510q0 -35 -9.5 -64t-28.5 -50.5t-46 -33.5t-61 -12q-72 0 -103.5 39.5t-31.5 111.5q0 33 10 62
t28.5 50t45.5 33t61 12q72 0 103.5 -38.5t31.5 -109.5zM637 145q0 54 -19.5 81.5t-64.5 27.5q-37 0 -59 -29t-22 -76q0 -55 19.5 -83t65.5 -28q35 0 57.5 29.5t22.5 77.5zM271 503q0 54 -19.5 81.5t-64.5 27.5q-37 0 -59 -29t-22 -76q0 -54 19.5 -82.5t65.5 -28.5
q36 0 58 29.5t22 77.5z" />
    <glyph glyph-name="Euro" unicode="&#x20ac;" horiz-adv-x="550" 
d="M510 26q-39 -17 -82 -25.5t-80 -8.5q-111 0 -170.5 58.5t-73.5 180.5h-93v46h90q-1 8 -1 17v19q0 17 0.5 33t1.5 32h-91v46h97q8 52 27.5 95t51 74t75.5 48t102 17q35 0 72 -7.5t63 -18.5l-17 -52q-26 11 -60.5 19t-71.5 8q-41 0 -71.5 -14.5t-51.5 -39.5t-34 -58.5
t-19 -70.5h207v-46h-214q-1 -14 -1.5 -27.5t-0.5 -28.5q0 -11 0.5 -22.5t0.5 -22.5h215v-46h-210q12 -92 57 -138t135 -46q30 0 65.5 8.5t65.5 20.5l16 -50v0z" />
    <glyph glyph-name="uni00AD" unicode="&#xad;" horiz-adv-x="550" 
d="M44 271v53h462v-53h-462z" />
  </font>
</defs>
</svg>
